{"glyphs":{"0":{"ha":758,"x_min":46,"x_max":713,"o":"m 444 675 q 379 737 426 737 q 313 678 333 737 q 294 461 294 619 q 313 245 294 303 q 380 186 333 186 q 445 247 426 186 q 464 462 464 308 q 444 675 464 616 m 46 461 q 127 822 46 706 q 376 937 209 937 q 713 461 713 937 q 631 102 713 217 q 379 -13 549 -13 q 46 461 46 -13 z "},"1":{"ha":758,"x_min":53,"x_max":595,"o":"m 595 924 l 595 0 l 342 0 l 342 489 q 345 652 342 569 q 287 593 321 623 l 183 506 l 53 666 l 370 924 l 595 924 z "},"2":{"ha":758,"x_min":28,"x_max":709,"o":"m 709 206 l 709 0 l 39 0 l 39 164 l 264 393 q 391 532 362 496 q 432 594 420 567 q 444 653 444 621 q 420 706 444 685 q 355 727 397 727 q 269 704 312 727 q 166 628 225 680 l 28 789 q 148 881 98 852 q 383 937 250 937 q 605 867 517 940 q 692 685 694 794 q 635 493 692 580 q 558 397 606 447 q 360 212 510 348 l 360 206 l 709 206 z "},"3":{"ha":758,"x_min":44,"x_max":705,"o":"m 319 -13 q 44 37 173 -13 l 44 244 q 284 184 162 184 q 403 207 365 184 q 441 282 441 230 q 397 356 441 334 q 244 379 352 377 l 187 379 l 187 567 l 246 567 q 436 664 436 567 q 409 718 436 700 q 332 736 381 736 q 149 677 244 736 l 46 843 q 194 915 117 893 q 371 937 271 937 q 597 881 515 937 q 678 723 678 824 q 626 576 678 637 q 474 487 573 515 l 474 483 q 705 264 705 454 q 603 61 705 136 q 319 -13 501 -13 z "},"4":{"ha":758,"x_min":22,"x_max":739,"o":"m 390 365 l 390 473 q 393 554 390 503 q 396 609 395 605 l 389 609 q 341 517 369 560 l 238 365 l 390 365 m 739 365 l 739 179 l 637 179 l 637 0 l 390 0 l 390 179 l 22 179 l 22 362 l 407 924 l 637 924 l 637 365 l 739 365 z "},"5":{"ha":758,"x_min":60,"x_max":700,"o":"m 311 594 q 420 605 370 605 q 563 569 499 606 q 664 463 627 532 q 699 308 700 394 q 605 70 699 152 q 324 -13 510 -13 q 60 37 163 -13 l 60 242 q 184 200 114 217 q 303 184 254 184 q 409 213 372 184 q 447 298 447 243 q 408 383 447 354 q 303 413 369 413 q 167 390 237 413 l 75 436 l 110 924 l 637 924 l 637 716 l 322 716 l 311 594 z "},"6":{"ha":758,"x_min":44,"x_max":718,"o":"m 293 324 q 319 224 293 262 q 387 185 345 185 q 453 217 428 185 q 477 311 477 248 q 389 423 477 423 q 319 394 345 423 q 293 324 293 365 m 522 743 q 336 687 397 743 q 269 508 275 632 l 277 508 q 458 616 334 616 q 651 537 583 616 q 718 311 718 458 q 632 75 718 164 q 388 -13 546 -13 q 136 93 229 -13 q 44 390 44 200 q 165 805 44 675 q 528 937 286 935 q 660 926 586 937 l 660 731 q 522 743 595 743 z "},"7":{"ha":758,"x_min":49,"x_max":716,"o":"m 49 716 l 49 923 l 716 923 l 716 775 l 390 0 l 132 0 l 449 716 l 49 716 z "},"8":{"ha":758,"x_min":43,"x_max":717,"o":"m 272 253 q 300 190 272 213 q 376 167 328 167 q 488 249 488 167 q 463 310 488 280 q 376 376 437 340 q 272 253 272 322 m 378 594 q 439 641 422 619 q 456 691 456 662 q 434 738 456 720 q 380 757 412 757 q 326 738 348 757 q 304 690 304 720 q 378 594 304 635 m 153 878 q 195 908 153 878 q 382 937 236 937 q 609 878 528 937 q 690 711 690 819 q 531 487 690 565 q 675 370 633 428 q 717 246 717 312 q 628 55 717 123 q 378 -13 539 -13 q 130 53 216 -13 q 43 243 43 119 q 82 381 43 324 q 211 483 121 437 q 70 713 70 577 q 153 878 70 819 z "},"9":{"ha":758,"x_min":34,"x_max":716,"o":"m 716 501 q 599 109 716 230 q 225 -13 482 -13 q 96 -6 140 -13 l 96 192 q 205 181 150 181 q 490 411 478 181 l 483 411 q 434 345 457 364 q 289 304 386 304 q 101 384 169 304 q 34 612 34 464 q 121 846 34 759 q 361 933 208 933 q 623 821 530 933 q 716 501 716 708 m 467 597 q 439 694 467 654 q 368 734 411 734 q 300 703 324 734 q 275 614 275 672 q 365 496 275 496 q 437 525 406 496 q 467 597 467 555 z "},"\r":{"ha":374,"x_min":0,"x_max":0,"o":""}," ":{"ha":374,"x_min":0,"x_max":0,"o":""},"!":{"ha":501,"x_min":114,"x_max":387,"o":"m 381 105 q 381 77 381 105 q 346 16 381 48 q 249 -16 311 -16 q 151 16 187 -16 q 116 105 116 48 q 150 194 116 162 q 249 226 185 226 q 347 195 313 226 q 381 105 381 163 m 387 924 l 355 326 l 146 326 l 114 924 l 387 924 z "},"\"":{"ha":750,"x_min":112,"x_max":638,"o":"m 112 924 l 337 924 l 311 591 l 138 591 l 112 924 m 412 924 l 638 924 l 612 591 l 438 591 l 412 924 z "},"#":{"ha":857,"x_min":23,"x_max":833,"o":"m 833 514 l 659 514 l 640 407 l 793 407 l 793 247 l 609 247 l 563 0 l 394 0 l 440 247 l 334 247 l 289 0 l 120 0 l 166 247 l 23 247 l 23 407 l 197 407 l 216 514 l 66 514 l 66 678 l 247 678 l 293 924 l 462 924 l 415 678 l 520 678 l 565 924 l 735 924 l 689 678 l 833 678 l 833 514 m 384 514 l 365 407 l 470 407 l 489 514 l 384 514 z "},"$":{"ha":758,"x_min":51,"x_max":713,"o":"m 319 -75 l 319 43 q 52 105 178 49 l 52 315 q 212 252 125 277 q 357 228 298 228 q 441 241 416 228 q 465 283 466 254 q 431 331 465 312 q 295 388 397 350 q 144 464 193 427 q 73 546 95 501 q 51 660 51 592 q 319 895 51 867 l 319 982 l 449 982 l 449 897 q 703 835 576 889 l 628 654 q 389 714 497 714 q 319 702 340 714 q 298 663 298 690 q 329 618 298 636 q 466 562 360 600 q 655 455 598 514 q 713 295 713 395 q 645 128 713 195 q 449 47 577 62 l 449 -75 l 319 -75 z "},"%":{"ha":1227,"x_min":23,"x_max":1203,"o":"m 964 415 q 928 382 940 415 q 916 278 916 350 q 964 141 916 141 q 1013 278 1013 141 q 964 415 1013 415 m 961 569 q 1017 569 961 569 q 1138 492 1072 569 q 1203 278 1203 414 q 1140 66 1203 142 q 965 -10 1077 -10 q 789 69 853 -10 q 726 284 726 148 q 788 494 726 419 q 961 569 850 569 m 262 783 q 225 750 237 783 q 213 645 213 717 q 225 541 213 574 q 261 508 237 508 q 297 541 286 508 q 309 646 309 573 q 262 783 309 783 m 773 924 l 961 924 l 448 0 l 261 0 l 773 924 m 258 937 q 314 937 258 937 q 435 859 369 937 q 500 645 500 782 q 437 433 500 509 q 263 357 375 357 q 86 435 150 357 q 23 650 23 514 q 85 862 23 786 q 258 937 147 937 z "},"&":{"ha":1034,"x_min":43,"x_max":1041,"o":"m 135 716 q 212 877 135 817 q 425 936 290 936 q 635 877 560 936 q 709 716 709 818 q 542 474 709 576 l 668 355 q 734 519 716 429 l 990 519 q 929 342 971 430 q 838 194 888 253 l 1041 0 l 721 0 l 659 65 q 565 15 604 29 q 381 -13 489 -13 q 137 62 232 -15 q 46 256 43 139 q 218 510 46 422 q 135 716 135 602 m 300 275 q 329 209 300 235 q 404 184 357 184 q 508 215 472 184 l 352 374 q 300 275 300 335 m 487 716 q 423 774 487 774 q 376 757 395 774 q 357 708 357 740 q 413 609 357 660 q 467 658 448 630 q 487 716 487 686 z "},"'":{"ha":449,"x_min":112,"x_max":337,"o":"m 112 924 l 337 924 l 311 591 l 138 591 l 112 924 z "},"(":{"ha":509,"x_min":70,"x_max":453,"o":"m 247 -149 q 70 426 70 56 q 247 1006 70 796 l 453 1006 q 330 746 373 894 q 287 430 287 598 q 329 112 287 262 q 451 -149 371 -37 l 247 -149 z "},")":{"ha":510,"x_min":56,"x_max":440,"o":"m 263 1006 q 395 753 350 902 q 440 424 440 604 q 395 99 440 245 q 263 -149 350 -48 l 58 -149 q 180 109 138 -41 q 222 427 222 259 q 180 744 222 594 q 56 1006 138 893 l 263 1006 z "},"*":{"ha":695,"x_min":28,"x_max":668,"o":"m 252 983 l 444 983 l 420 761 l 645 824 l 668 638 l 470 625 l 600 449 l 436 362 l 345 541 l 268 363 l 96 449 l 226 625 l 28 641 l 57 824 l 277 761 l 252 983 z "},"+":{"ha":732,"x_min":46,"x_max":685,"o":"m 281 143 l 281 371 l 46 371 l 46 541 l 281 541 l 281 773 l 451 773 l 451 541 l 685 541 l 685 371 l 451 371 l 451 143 l 281 143 z "},",":{"ha":400,"x_min":36,"x_max":324,"o":"m 98 189 l 315 189 l 324 174 q 212 -180 262 -66 l 36 -180 q 98 189 83 46 z "},"-":{"ha":497,"x_min":70,"x_max":427,"o":"m 427 305 l 70 305 l 70 501 l 427 501 l 427 305 z "},".":{"ha":374,"x_min":54,"x_max":319,"o":"m 319 105 q 319 77 319 105 q 284 16 319 48 q 187 -16 249 -16 q 90 16 126 -16 q 54 106 54 48 q 89 195 54 164 q 187 226 124 226 q 285 195 251 226 q 319 105 319 163 z "},"/":{"ha":572,"x_min":6,"x_max":569,"o":"m 350 937 l 569 937 l 225 -13 l 6 -13 l 350 937 z "},":":{"ha":402,"x_min":82,"x_max":347,"o":"m 347 105 q 347 77 347 105 q 312 16 347 48 q 216 -16 277 -16 q 118 16 154 -16 q 82 106 82 48 q 117 195 82 164 q 216 226 152 226 q 313 195 279 226 q 347 105 347 163 m 347 604 q 347 576 347 604 q 312 515 347 547 q 215 483 278 483 q 117 515 152 483 q 82 604 82 547 q 117 693 82 661 q 216 725 152 725 q 313 693 279 725 q 347 604 347 661 z "},";":{"ha":412,"x_min":64,"x_max":352,"o":"m 126 189 l 343 189 l 352 174 q 240 -180 290 -66 l 64 -180 q 126 189 111 46 m 350 604 q 350 576 350 604 q 316 515 350 547 q 219 483 282 483 q 121 515 155 483 q 86 604 86 546 q 120 693 86 662 q 218 725 154 725 q 316 693 282 725 q 350 604 350 661 z "},"<":{"ha":732,"x_min":46,"x_max":685,"o":"m 685 299 l 685 112 l 46 396 l 46 505 l 685 824 l 685 637 l 293 458 l 685 299 z "},"=":{"ha":732,"x_min":46,"x_max":687,"o":"m 687 226 l 46 226 l 46 397 l 687 397 l 687 226 m 687 515 l 46 515 l 46 685 l 687 685 l 687 515 z "},">":{"ha":732,"x_min":46,"x_max":685,"o":"m 46 112 l 46 299 l 437 458 l 46 637 l 46 824 l 685 505 l 685 396 l 46 112 z "},"?":{"ha":770,"x_min":77,"x_max":707,"o":"m 501 105 q 501 76 501 105 q 466 16 501 48 q 369 -16 431 -16 q 272 15 307 -16 q 237 105 237 47 q 271 195 237 164 q 369 226 305 226 q 467 194 433 226 q 501 105 501 162 m 458 326 l 263 326 l 263 381 q 288 484 263 442 q 372 563 313 526 q 453 627 431 601 q 475 683 475 653 q 451 727 475 712 q 388 743 427 743 q 165 675 292 743 l 77 848 q 406 937 235 937 q 627 875 546 937 q 707 706 707 813 q 672 575 707 631 q 563 472 636 519 q 474 405 490 425 q 458 358 458 385 l 458 326 z "},"@":{"ha":1161,"x_min":52,"x_max":1109,"o":"m 628 565 q 520 523 560 565 q 480 412 480 480 q 565 285 480 285 q 636 323 614 285 q 666 463 658 362 l 672 562 q 628 565 644 565 m 1109 477 q 1078 311 1109 389 q 993 191 1048 234 q 869 147 938 147 q 779 167 819 147 q 716 223 739 187 l 706 223 q 542 147 639 147 q 365 215 427 147 q 303 404 303 282 q 390 622 301 538 q 626 704 480 706 q 739 694 678 704 q 852 666 801 683 l 838 399 l 837 339 q 869 285 837 285 q 921 340 902 285 q 942 479 942 395 q 857 712 942 630 q 615 794 771 794 q 329 683 435 796 q 224 383 222 571 q 314 134 224 222 q 563 47 403 47 q 893 107 723 47 l 893 -37 q 577 -98 750 -98 q 192 30 332 -98 q 52 385 52 159 q 124 673 52 546 q 324 868 197 799 q 606 936 451 936 q 873 880 760 936 q 1048 720 987 824 q 1109 477 1109 616 z "},"A":{"ha":940,"x_min":0,"x_max":940,"o":"m 940 0 l 666 0 l 621 173 l 321 173 l 275 0 l 0 0 l 301 928 l 635 928 l 940 0 m 373 378 l 569 378 q 470 775 482 706 q 373 378 456 688 z "},"B":{"ha":872,"x_min":100,"x_max":812,"o":"m 433 387 l 350 387 l 350 192 l 437 192 q 554 291 554 192 q 523 362 554 338 q 433 387 492 387 m 350 735 l 350 569 l 425 569 q 508 592 479 569 q 537 657 537 614 q 420 735 537 735 l 350 735 m 100 0 l 100 924 l 422 924 q 701 868 610 924 q 793 694 793 812 q 753 561 793 616 q 648 490 713 506 l 648 484 q 772 409 733 461 q 812 270 812 357 q 717 72 812 145 q 459 0 623 0 l 100 0 z "},"C":{"ha":840,"x_min":65,"x_max":800,"o":"m 723 675 q 512 732 602 732 q 372 659 422 732 q 322 458 322 586 q 525 192 322 192 q 760 249 618 192 l 760 39 q 498 -13 645 -13 q 177 109 289 -13 q 66 459 66 230 q 119 711 65 602 q 276 879 173 820 q 514 937 378 939 q 800 872 664 937 l 723 675 z "},"D":{"ha":950,"x_min":100,"x_max":884,"o":"m 405 205 q 572 271 518 205 q 625 468 625 336 q 575 661 625 600 q 422 723 525 723 l 350 723 l 350 205 l 405 205 m 884 482 q 757 125 884 251 q 399 0 629 0 l 100 0 l 100 924 l 420 924 q 763 810 642 924 q 884 482 884 697 z "},"E":{"ha":711,"x_min":100,"x_max":648,"o":"m 648 204 l 648 0 l 100 0 l 100 924 l 648 924 l 648 723 l 350 723 l 350 578 l 626 578 l 626 378 l 350 378 l 350 204 l 648 204 z "},"F":{"ha":698,"x_min":100,"x_max":646,"o":"m 345 347 l 345 0 l 100 0 l 100 924 l 646 924 l 646 723 l 345 723 l 345 547 l 622 547 l 622 347 l 345 347 z "},"G":{"ha":958,"x_min":66,"x_max":869,"o":"m 470 348 l 470 541 l 869 541 l 869 43 q 513 -13 708 -13 q 183 111 300 -13 q 66 461 66 235 q 193 813 66 688 q 551 937 320 937 q 850 879 718 937 l 772 683 q 558 732 673 732 q 383 661 443 732 q 324 460 324 591 q 378 261 324 329 q 534 192 432 192 q 635 204 591 192 l 635 348 l 470 348 z "},"H":{"ha":991,"x_min":100,"x_max":892,"o":"m 892 924 l 892 0 l 641 0 l 641 376 l 350 376 l 350 0 l 100 0 l 100 924 l 350 924 l 350 581 l 641 581 l 641 924 l 892 924 z "},"I":{"ha":451,"x_min":100,"x_max":350,"o":"m 350 0 l 100 0 l 100 924 l 350 924 l 350 0 z "},"J":{"ha":456,"x_min":-103,"x_max":356,"o":"m -103 -83 q -10 -96 -43 -96 q 78 -59 51 -96 q 105 69 105 -22 l 105 924 l 356 924 l 356 91 q 273 -194 356 -98 q 27 -290 191 -290 q -103 -277 -43 -290 l -103 -83 z "},"K":{"ha":889,"x_min":100,"x_max":894,"o":"m 350 0 l 100 0 l 100 924 l 350 924 l 350 522 q 427 641 371 564 l 621 924 l 894 924 l 603 510 l 889 0 l 607 0 l 425 353 l 350 309 l 350 0 z "},"L":{"ha":753,"x_min":100,"x_max":705,"o":"m 705 0 l 100 0 l 100 924 l 350 924 l 350 202 l 705 202 l 705 0 z "},"M":{"ha":1251,"x_min":100,"x_max":1152,"o":"m 923 405 q 932 664 923 485 l 926 664 l 740 0 l 502 0 l 313 666 l 308 666 q 321 401 321 501 l 321 0 l 100 0 l 100 924 l 433 924 l 625 268 l 630 268 l 819 924 l 1152 924 l 1152 0 l 923 0 l 923 405 z "},"N":{"ha":1079,"x_min":100,"x_max":980,"o":"m 980 924 l 980 0 l 652 0 l 315 651 l 309 651 q 321 416 321 492 l 321 0 l 100 0 l 100 924 l 426 924 l 762 282 l 766 282 q 757 506 757 416 l 757 924 l 980 924 z "},"O":{"ha":1031,"x_min":66,"x_max":964,"o":"m 516 734 q 329 464 329 734 q 515 195 329 195 q 656 261 610 195 q 701 463 701 326 q 655 667 701 601 q 516 734 609 734 m 66 463 q 66 579 66 463 q 181 817 66 695 q 516 938 296 938 q 850 818 737 938 q 964 463 964 697 q 850 108 964 230 q 516 -13 736 -13 q 182 110 297 -13 q 66 463 66 232 z "},"P":{"ha":818,"x_min":100,"x_max":770,"o":"m 350 723 l 350 510 l 395 510 q 484 541 451 510 q 517 628 517 573 q 414 723 517 723 l 350 723 m 420 924 q 682 848 593 924 q 770 624 770 772 q 679 390 770 475 q 420 306 587 306 l 350 306 l 350 0 l 100 0 l 100 924 l 420 924 z "},"Q":{"ha":1031,"x_min":66,"x_max":990,"o":"m 516 734 q 329 464 329 734 q 515 195 329 195 q 656 261 610 195 q 701 463 701 326 q 655 667 701 601 q 516 734 609 734 m 66 463 q 66 579 66 463 q 181 817 66 695 q 516 938 296 938 q 850 818 737 938 q 964 463 964 697 q 765 40 964 149 l 990 -220 l 679 -220 l 515 -14 l 515 -13 l 515 -13 q 182 110 297 -13 q 66 463 66 232 z "},"R":{"ha":876,"x_min":100,"x_max":892,"o":"m 350 336 l 350 0 l 100 0 l 100 924 l 402 924 q 779 651 779 924 q 622 402 779 490 l 892 0 l 609 0 l 413 336 l 350 336 m 350 735 l 350 524 l 396 524 q 527 640 527 524 q 399 735 527 735 l 350 735 z "},"S":{"ha":747,"x_min":57,"x_max":706,"o":"m 57 268 q 207 210 131 230 q 342 190 283 190 q 427 209 400 190 q 454 259 454 228 q 444 292 454 278 q 412 320 433 306 q 293 378 391 334 q 152 460 195 423 q 63 665 63 536 q 156 866 63 794 q 411 937 249 937 q 704 871 554 937 l 628 678 q 404 737 499 737 q 334 721 357 737 q 311 678 311 705 q 339 629 311 651 q 489 552 368 607 q 657 435 611 497 q 704 281 704 375 q 606 68 706 150 q 342 -13 506 -14 q 185 1 249 -13 q 57 46 121 15 l 57 268 z "},"T":{"ha":765,"x_min":32,"x_max":732,"o":"m 508 720 l 508 0 l 258 0 l 258 720 l 32 720 l 32 924 l 732 924 l 732 720 l 508 720 z "},"U":{"ha":980,"x_min":95,"x_max":885,"o":"m 635 924 l 885 924 l 885 368 q 783 87 885 186 q 489 -13 680 -13 q 196 84 298 -13 q 95 362 95 180 l 95 924 l 345 924 l 345 382 q 382 240 345 285 q 492 195 418 195 q 601 239 567 195 q 635 383 635 284 l 635 924 z "},"V":{"ha":898,"x_min":0,"x_max":898,"o":"m 449 238 q 490 453 456 319 l 619 924 l 898 924 l 595 0 l 301 0 l 0 924 l 281 924 l 407 456 q 449 238 445 302 z "},"W":{"ha":1345,"x_min":20,"x_max":1325,"o":"m 1325 924 l 1097 0 l 803 0 l 714 402 q 694 501 706 432 q 674 628 681 571 q 635 414 662 529 l 543 0 l 249 0 l 20 924 l 261 924 l 361 461 q 407 216 395 307 q 437 391 416 281 q 477 574 458 501 l 558 924 l 789 924 l 869 574 q 908 387 887 496 q 937 216 929 277 q 982 459 944 279 l 1084 924 l 1325 924 z "},"X":{"ha":936,"x_min":3,"x_max":932,"o":"m 617 453 l 932 0 l 643 0 l 463 289 l 285 0 l 3 0 l 309 473 l 21 924 l 298 924 l 464 638 l 625 924 l 910 924 l 617 453 z "},"Y":{"ha":859,"x_min":0,"x_max":859,"o":"m 555 0 l 304 0 l 304 353 l 0 924 l 272 924 l 430 581 l 589 924 l 859 924 l 555 361 l 555 0 z "},"Z":{"ha":791,"x_min":39,"x_max":758,"o":"m 758 202 l 758 0 l 39 0 l 39 154 l 439 723 l 48 723 l 48 924 l 749 924 l 749 770 l 348 202 l 758 202 z "},"[":{"ha":420,"x_min":74,"x_max":389,"o":"m 389 -1 l 389 -161 l 74 -161 l 74 1006 l 389 1006 l 389 845 l 275 845 l 275 -1 l 389 -1 z "},"\\":{"ha":572,"x_min":4,"x_max":567,"o":"m 4 937 l 223 937 l 567 -13 l 348 -13 l 4 937 z "},"]":{"ha":420,"x_min":29,"x_max":345,"o":"m 29 -161 l 29 -1 l 145 -1 l 145 845 l 29 845 l 29 1006 l 345 1006 l 345 -161 l 29 -161 z "},"^":{"ha":679,"x_min":-10,"x_max":697,"o":"m 171 317 l -10 317 l 268 928 l 376 928 l 697 317 l 510 317 l 327 682 l 249 498 l 171 317 z "},"_":{"ha":647,"x_min":-3,"x_max":650,"o":"m 650 -84 l 650 -239 l -3 -239 l -3 -84 l 650 -84 z "},"`":{"ha":774,"x_min":167,"x_max":604,"o":"m 604 871 l 440 871 q 311 958 409 891 q 167 1065 224 1020 l 167 1079 l 439 1079 q 567 932 472 1034 l 604 890 l 604 871 z "},"a":{"ha":806,"x_min":47,"x_max":723,"o":"m 723 0 l 553 0 l 505 95 l 500 95 q 398 11 451 34 q 264 -13 345 -13 q 105 48 162 -13 q 47 218 47 110 q 357 451 47 439 l 477 456 l 477 466 q 389 554 477 554 q 190 501 312 554 l 119 664 q 435 729 244 729 q 648 660 572 729 q 723 470 723 591 l 723 0 m 299 228 q 369 161 299 161 q 446 190 414 161 q 477 264 477 218 l 477 319 l 421 317 q 299 228 299 312 z "},"b":{"ha":832,"x_min":85,"x_max":777,"o":"m 525 362 q 433 534 525 534 q 356 499 381 534 q 332 385 332 463 l 332 350 q 356 224 332 263 q 435 186 381 186 q 502 231 479 186 q 525 362 525 276 m 332 624 q 520 729 402 729 q 708 631 639 729 q 777 359 777 532 q 707 86 777 185 q 515 -13 639 -13 q 389 19 442 -13 q 332 70 364 35 l 317 70 l 278 0 l 85 0 l 85 983 l 332 983 l 332 761 q 324 624 332 722 l 332 624 z "},"c":{"ha":698,"x_min":54,"x_max":666,"o":"m 411 -13 q 145 82 237 -13 q 54 355 54 176 q 152 631 54 533 q 431 729 250 729 q 666 674 555 729 l 593 492 q 433 534 494 534 q 338 488 371 534 q 305 356 305 441 q 433 184 305 184 q 641 247 541 184 l 641 51 q 411 -13 545 -13 z "},"d":{"ha":832,"x_min":53,"x_max":747,"o":"m 317 729 q 423 704 378 729 q 505 624 468 680 l 510 624 q 498 792 498 711 l 498 983 l 747 983 l 747 0 l 560 0 l 508 91 l 498 91 q 308 -13 434 -13 q 123 86 193 -15 q 54 360 53 187 q 125 631 54 532 q 317 729 195 729 m 407 529 q 331 484 357 529 q 304 354 304 438 q 331 226 304 270 q 413 183 358 183 q 492 219 467 183 q 519 335 517 255 l 519 355 q 492 489 519 448 q 407 529 465 529 z "},"e":{"ha":800,"x_min":54,"x_max":746,"o":"m 521 447 q 492 529 520 499 q 417 560 464 560 q 342 532 371 560 q 309 447 314 503 l 521 447 m 431 -13 q 153 82 252 -13 q 54 357 54 178 q 145 632 54 535 q 403 729 237 729 q 658 644 569 729 q 746 401 746 559 l 746 291 l 304 291 q 348 197 306 231 q 457 163 389 163 q 580 175 525 163 q 699 218 635 187 l 699 40 q 580 -1 642 11 q 431 -13 518 -13 z "},"f":{"ha":534,"x_min":28,"x_max":567,"o":"m 522 716 l 522 531 l 370 531 l 370 0 l 123 0 l 123 531 l 28 531 l 28 652 l 128 713 l 128 725 q 186 928 128 866 q 371 990 244 990 q 567 956 464 990 l 514 796 q 425 809 468 809 q 383 791 396 809 q 370 735 370 774 l 370 716 l 522 716 z "},"g":{"ha":784,"x_min":13,"x_max":761,"o":"m 316 -25 q 249 -43 276 -25 q 221 -91 221 -62 q 254 -138 221 -119 q 342 -157 287 -157 q 486 -134 431 -157 q 540 -77 540 -112 q 508 -37 540 -48 q 413 -25 477 -25 l 316 -25 m 761 716 l 761 597 l 663 560 q 683 475 683 523 q 601 295 683 358 q 360 232 520 232 q 296 237 318 232 q 287 206 287 221 q 316 178 287 187 q 395 168 345 168 l 514 168 q 755 -35 755 168 q 643 -238 755 -165 q 330 -311 531 -311 q 95 -260 178 -311 q 13 -114 13 -209 q 172 52 13 15 q 115 97 139 66 q 91 159 91 127 q 108 217 91 191 q 185 278 126 242 q 97 356 128 303 q 66 483 66 408 q 146 664 66 600 q 373 729 225 729 q 511 716 427 729 l 761 716 m 376 591 q 299 481 299 591 q 376 371 299 371 q 449 481 449 371 q 376 591 449 591 z "},"h":{"ha":867,"x_min":85,"x_max":784,"o":"m 784 0 l 536 0 l 536 390 q 451 534 536 534 q 361 483 389 534 q 332 315 332 431 l 332 0 l 85 0 l 85 983 l 332 983 l 332 843 q 322 628 332 753 l 334 628 q 416 705 369 682 q 531 729 464 729 q 718 660 652 729 q 784 466 784 591 l 784 0 z "},"i":{"ha":421,"x_min":80,"x_max":343,"o":"m 334 716 l 334 0 l 86 0 l 86 716 l 334 716 m 343 894 q 212 786 343 786 q 80 894 80 786 q 111 977 80 951 q 211 1004 143 1004 q 311 977 279 1004 q 343 894 343 949 z "},"j":{"ha":420,"x_min":-66,"x_max":342,"o":"m 67 -311 q -5 -306 34 -311 q -66 -295 -44 -301 l -66 -103 q 10 -114 -26 -114 q 85 -6 85 -114 l 85 716 l 332 716 l 332 -58 q 263 -244 332 -176 q 67 -311 194 -311 m 342 894 q 210 786 342 786 q 79 894 79 786 q 110 977 79 951 q 210 1004 141 1004 q 310 977 278 1004 q 342 894 342 949 z "},"k":{"ha":853,"x_min":85,"x_max":853,"o":"m 334 0 l 85 0 l 85 983 l 334 983 l 334 597 q 319 402 334 499 l 325 402 q 401 514 369 474 l 562 716 l 837 716 l 589 411 l 853 0 l 571 0 l 414 256 l 334 195 l 334 0 z "},"l":{"ha":418,"x_min":85,"x_max":332,"o":"m 332 983 l 332 0 l 85 0 l 85 983 l 332 983 z "},"m":{"ha":1294,"x_min":85,"x_max":1211,"o":"m 1211 0 l 964 0 l 964 389 q 944 499 964 463 q 881 534 925 534 q 798 486 824 534 q 772 334 772 437 l 772 0 l 524 0 l 524 389 q 505 499 524 463 q 444 534 485 534 q 358 482 385 534 q 332 313 332 430 l 332 0 l 85 0 l 85 716 l 272 716 l 303 628 l 317 628 q 399 703 345 676 q 522 729 453 729 q 740 635 678 729 l 760 635 q 844 704 790 679 q 963 729 898 729 q 1150 664 1089 729 q 1211 466 1211 599 l 1211 0 z "},"n":{"ha":867,"x_min":85,"x_max":784,"o":"m 784 0 l 537 0 l 537 390 q 451 534 537 534 q 361 485 389 534 q 332 313 332 435 l 332 0 l 85 0 l 85 716 l 272 716 l 303 628 l 317 628 q 534 729 381 729 q 718 660 652 729 q 784 466 784 591 l 784 0 z "},"o":{"ha":824,"x_min":54,"x_max":771,"o":"m 517 359 q 517 407 517 359 q 493 500 517 454 q 412 545 468 545 q 330 499 355 545 q 305 359 305 454 q 331 218 305 265 q 413 171 356 171 q 493 217 469 171 q 517 359 517 264 m 769 360 q 674 86 769 184 q 414 -13 580 -13 q 150 88 247 -13 q 54 361 54 188 q 148 631 54 534 q 414 729 243 729 q 672 629 573 731 q 769 360 771 527 z "},"p":{"ha":832,"x_min":85,"x_max":777,"o":"m 515 -13 q 416 6 459 -13 q 332 70 374 25 l 321 70 q 332 -23 332 -2 l 332 -311 l 85 -311 l 85 716 l 286 716 l 321 625 l 332 625 q 521 729 400 729 q 708 630 641 729 q 777 360 777 532 q 706 86 777 187 q 515 -13 635 -13 m 432 186 q 457 186 432 186 q 504 227 482 186 q 525 362 525 268 q 504 495 525 455 q 431 534 482 534 q 357 497 379 534 q 332 381 334 460 l 332 361 q 357 228 332 269 q 432 186 381 186 z "},"q":{"ha":832,"x_min":54,"x_max":747,"o":"m 305 353 q 331 220 305 261 q 412 179 356 179 q 494 214 468 179 q 519 331 519 249 l 519 361 q 493 496 519 456 q 407 537 467 537 q 305 353 305 537 m 500 91 q 315 -13 439 -13 q 122 86 191 -13 q 54 358 54 184 q 124 631 54 532 q 319 729 194 729 q 510 628 444 729 l 515 628 l 534 716 l 747 716 l 747 -311 l 500 -311 l 500 -15 q 508 91 500 4 l 500 91 z "},"r":{"ha":607,"x_min":85,"x_max":593,"o":"m 517 729 q 593 721 541 729 l 571 488 q 487 496 539 496 q 332 352 332 496 l 332 0 l 85 0 l 85 716 l 269 716 l 308 602 l 319 602 q 406 694 350 659 q 517 729 462 729 z "},"s":{"ha":690,"x_min":75,"x_max":638,"o":"m 566 387 q 638 218 638 330 q 561 46 638 105 q 335 -13 483 -13 q 197 -4 256 -13 q 77 27 138 4 l 77 225 q 205 183 137 198 q 325 167 272 167 q 405 204 405 167 q 383 237 405 223 q 252 295 362 251 q 114 388 152 337 q 75 517 75 439 q 152 673 75 617 q 363 729 230 729 q 633 668 496 729 l 565 508 q 462 546 515 531 q 371 562 408 562 q 311 532 311 562 q 332 501 311 514 q 454 448 353 488 q 566 387 529 417 z "},"t":{"ha":595,"x_min":34,"x_max":555,"o":"m 369 252 q 436 183 369 183 q 555 207 485 183 l 555 27 q 463 -3 510 7 q 355 -13 416 -13 q 176 48 232 -13 q 120 236 120 108 l 120 531 l 34 531 l 34 631 l 143 709 l 207 859 l 369 859 l 369 716 l 545 716 l 545 531 l 369 531 l 369 252 z "},"u":{"ha":867,"x_min":84,"x_max":782,"o":"m 782 0 l 595 0 l 565 89 l 550 89 q 463 14 519 40 q 334 -13 407 -13 q 150 56 216 -13 q 84 249 84 125 l 84 716 l 331 716 l 331 325 q 351 218 331 253 q 416 183 371 183 q 507 233 480 183 q 534 402 534 283 l 534 716 l 782 716 l 782 0 z "},"v":{"ha":791,"x_min":0,"x_max":791,"o":"m 390 220 l 395 220 q 407 291 395 251 l 534 716 l 791 716 l 517 0 l 273 0 l 0 716 l 258 716 l 379 293 q 381 282 379 291 q 385 264 383 272 q 390 220 390 237 z "},"w":{"ha":1178,"x_min":15,"x_max":1162,"o":"m 965 0 l 701 0 l 621 341 l 602 444 l 589 527 l 585 527 q 543 304 555 357 l 470 0 l 211 0 l 15 716 l 259 716 l 317 441 q 350 206 344 303 l 353 206 q 388 427 355 261 l 454 716 l 727 716 l 788 423 q 824 206 817 286 l 829 206 q 840 326 831 247 q 861 441 851 403 l 924 716 l 1162 716 l 965 0 z "},"x":{"ha":815,"x_min":6,"x_max":809,"o":"m 6 0 l 237 365 l 18 716 l 299 716 l 407 515 l 519 716 l 800 716 l 576 365 l 809 0 l 528 0 l 407 218 l 287 0 l 6 0 z "},"y":{"ha":789,"x_min":-1,"x_max":789,"o":"m 166 -311 q 65 -301 117 -311 l 65 -106 q 136 -114 99 -114 q 242 -65 205 -114 q 281 10 260 -41 l -1 716 l 259 716 l 381 305 q 393 228 390 271 l 397 228 q 413 304 403 274 l 537 716 l 789 716 l 506 -46 q 372 -251 451 -190 q 166 -311 293 -311 z "},"z":{"ha":656,"x_min":31,"x_max":624,"o":"m 624 189 l 624 0 l 31 0 l 31 141 l 327 527 l 48 527 l 48 716 l 609 716 l 609 563 l 326 189 l 624 189 z "},"{":{"ha":605,"x_min":62,"x_max":543,"o":"m 62 320 l 62 510 q 176 539 135 510 q 218 618 218 567 l 218 779 q 249 910 218 866 q 349 974 279 954 q 543 994 419 994 l 543 817 q 466 808 485 815 q 423 750 423 794 l 423 579 q 387 469 423 507 q 271 419 351 431 l 271 412 q 387 362 351 400 q 423 256 423 325 l 423 82 q 472 22 423 37 q 543 15 495 16 l 543 -161 q 350 -141 420 -161 q 249 -77 279 -121 q 218 56 218 -33 l 218 213 q 176 292 218 263 q 62 320 134 320 z "},"|":{"ha":659,"x_min":244,"x_max":414,"o":"m 244 -282 l 244 983 l 414 983 l 414 -282 l 244 -282 z "},"}":{"ha":605,"x_min":62,"x_max":542,"o":"m 542 510 l 542 320 q 430 291 472 320 q 388 213 388 263 l 388 56 q 357 -76 388 -32 q 256 -141 326 -121 q 62 -161 186 -161 l 62 15 q 156 32 130 17 q 183 82 183 48 l 183 256 q 218 362 183 325 q 334 412 254 400 l 334 419 q 218 469 254 431 q 183 579 183 507 l 183 750 q 138 808 183 794 q 62 817 120 815 l 62 994 q 256 973 185 994 q 357 910 327 953 q 388 779 388 866 l 388 618 q 429 539 388 567 q 542 510 470 510 z "},"~":{"ha":732,"x_min":46,"x_max":685,"o":"m 342 374 q 191 409 260 409 q 46 332 122 409 l 46 510 q 212 578 111 578 q 294 570 256 578 q 389 539 331 562 q 540 503 473 503 q 611 524 572 503 q 685 580 650 544 l 685 402 q 519 334 619 334 q 433 343 473 334 q 342 374 394 352 z "}," ":{"ha":374,"x_min":0,"x_max":0,"o":""},"©":{"ha":1067,"x_min":58,"x_max":1008,"o":"m 560 614 q 480 575 508 614 q 451 459 451 536 q 479 345 451 382 q 565 309 506 309 q 727 352 652 309 l 727 206 q 555 166 647 166 q 348 244 421 166 q 275 462 275 323 q 346 679 275 602 q 548 757 417 757 q 752 708 654 757 l 694 578 q 560 614 628 614 m 211 647 q 186 604 211 647 q 161 462 161 561 q 211 276 161 363 q 348 139 261 189 q 534 91 434 91 q 720 140 634 91 q 855 276 805 190 q 905 462 905 363 q 856 648 905 562 q 720 783 806 734 q 534 833 635 833 q 347 783 434 833 q 211 647 261 733 m 1008 463 q 1008 398 1008 463 q 944 224 1008 333 q 772 51 881 115 q 533 -13 664 -13 q 292 52 402 -13 q 120 227 182 117 q 58 463 58 337 q 121 699 58 588 q 295 873 185 810 q 532 937 405 937 q 767 876 659 937 q 942 704 876 815 q 1008 463 1008 593 z "},"×":{"ha":732,"x_min":77,"x_max":654,"o":"m 78 287 l 244 457 l 77 626 l 192 746 l 362 577 l 536 746 l 654 630 l 482 457 l 652 285 l 536 168 l 362 339 l 192 169 l 78 287 z "},"÷":{"ha":732,"x_min":46,"x_max":685,"o":"m 464 211 q 464 186 464 211 q 437 131 464 160 q 365 103 410 103 q 293 131 319 103 q 267 211 267 159 q 292 290 267 263 q 365 317 317 317 q 439 290 413 317 q 464 211 464 262 m 685 371 l 46 371 l 46 541 l 685 541 l 685 371 m 464 704 q 464 678 464 704 q 437 624 464 653 q 365 595 410 595 q 293 624 319 595 q 267 704 267 652 q 292 783 267 756 q 365 810 317 810 q 439 783 413 810 q 464 704 464 755 z "},"ʼ":{"ha":579,"x_min":140,"x_max":485,"o":"m 468 1047 l 485 1025 l 352 691 l 140 691 l 217 1047 l 468 1047 z "},"ऀ":{"ha":0,"x_min":-713,"x_max":-36,"o":"m -376 1003 q -353 1003 -376 1003 q -304 977 -330 1003 q -278 917 -278 951 q -304 857 -278 883 q -376 831 -329 831 q -447 857 -422 831 q -472 916 -472 883 q -447 976 -472 950 q -376 1003 -422 1003 m -381 1224 q -200 1192 -283 1224 q -36 1095 -117 1161 l -87 935 q -228 1023 -159 994 q -382 1052 -297 1052 q -654 937 -523 1052 l -713 1093 q -381 1224 -583 1224 z "},"ँ":{"ha":0,"x_min":-596,"x_max":81,"o":"m -251 956 q -432 988 -349 956 q -596 1086 -515 1020 l -545 1245 q -404 1158 -473 1187 q -250 1128 -335 1128 q 22 1243 -109 1128 l 81 1087 q -251 956 -49 956 m -256 1178 q -279 1178 -256 1178 q -328 1204 -302 1178 q -354 1264 -354 1229 q -328 1324 -354 1298 q -256 1350 -303 1350 q -185 1324 -210 1350 q -160 1264 -160 1298 q -185 1204 -160 1230 q -256 1178 -210 1178 z "},"ं":{"ha":0,"x_min":-378,"x_max":-150,"o":"m -263 1031 q -290 1031 -263 1031 q -348 1062 -317 1031 q -378 1133 -378 1093 q -348 1204 -378 1173 q -263 1234 -318 1234 q -179 1204 -209 1234 q -150 1133 -150 1173 q -179 1062 -150 1093 q -263 1031 -209 1031 z "},"ः":{"ha":402,"x_min":82,"x_max":347,"o":"m 347 105 q 347 77 347 105 q 312 16 347 48 q 216 -16 277 -16 q 118 16 154 -16 q 82 106 82 48 q 117 195 82 164 q 216 226 152 226 q 313 195 279 226 q 347 105 347 163 m 347 604 q 347 576 347 604 q 312 515 347 547 q 215 483 278 483 q 117 515 152 483 q 82 604 82 547 q 117 693 82 661 q 216 725 152 725 q 313 693 279 725 q 347 604 347 661 z "},"ऄ":{"ha":1203,"x_min":45,"x_max":1224,"o":"m 826 0 l 826 300 q 737 292 775 292 q 664 294 698 292 q 584 124 663 192 q 377 55 505 55 q 206 82 285 55 q 45 161 126 109 l 90 337 q 324 249 217 249 q 409 275 380 249 q 439 345 439 301 q 391 422 439 390 q 230 397 320 404 l 213 396 l 174 576 q 392 632 359 591 q 407 681 407 651 q 385 727 407 711 q 324 744 364 744 q 128 684 240 744 l 75 866 q 335 921 195 921 q 548 851 474 921 q 622 662 622 782 q 559 507 622 568 q 600 469 582 489 q 659 466 625 466 q 826 508 753 466 l 826 748 l 708 748 l 708 908 l 826 908 l 826 930 q 748 1006 826 1006 q 675 993 730 1006 q 568 981 619 981 q 431 1015 490 981 q 319 1117 372 1049 l 407 1255 q 490 1187 455 1206 q 560 1168 525 1168 q 678 1188 595 1168 q 824 1208 760 1208 q 982 1142 924 1208 q 1040 962 1040 1076 l 1040 908 l 1224 908 l 1224 748 l 1070 748 l 1070 0 l 826 0 z "},"अ":{"ha":1203,"x_min":45,"x_max":1224,"o":"m 826 0 l 826 300 q 737 292 775 292 q 664 294 698 292 q 584 124 663 192 q 377 55 505 55 q 206 82 285 55 q 45 161 126 109 l 90 337 q 324 249 217 249 q 409 275 380 249 q 439 345 439 301 q 391 422 439 390 q 230 397 320 404 l 213 396 l 174 576 q 392 632 359 591 q 407 681 407 651 q 385 727 407 711 q 324 744 364 744 q 128 684 240 744 l 75 866 q 335 921 195 921 q 548 851 474 921 q 622 662 622 782 q 559 507 622 568 q 600 469 582 489 q 659 466 625 466 q 826 508 753 466 l 826 748 l 708 748 l 708 908 l 1224 908 l 1224 748 l 1070 748 l 1070 0 l 826 0 z "},"आ":{"ha":1668,"x_min":45,"x_max":1689,"o":"m 826 0 l 826 300 q 737 292 775 292 q 664 294 698 292 q 584 124 663 192 q 377 55 505 55 q 206 82 285 55 q 45 161 126 109 l 90 337 q 324 249 217 249 q 409 275 380 249 q 439 345 439 301 q 391 422 439 390 q 230 397 320 404 l 213 396 l 174 576 q 392 632 359 591 q 407 681 407 651 q 385 727 407 711 q 324 744 364 744 q 128 684 240 744 l 75 866 q 335 921 195 921 q 548 851 474 921 q 622 662 622 782 q 559 507 622 568 q 600 469 582 489 q 659 466 625 466 q 826 508 753 466 l 826 748 l 708 748 l 708 908 l 1689 908 l 1689 748 l 1536 748 l 1536 0 l 1291 0 l 1291 748 l 1070 748 l 1070 0 l 826 0 z "},"इ":{"ha":807,"x_min":-21,"x_max":828,"o":"m 275 -22 q 111 27 166 -15 q 56 114 56 69 q 90 191 56 159 q 174 223 123 223 q 332 156 253 223 q 421 165 383 157 q 479 187 459 174 q 517 236 517 211 q 447 272 517 272 q 282 230 376 272 l 269 230 q 89 350 143 288 q 35 488 35 412 q 97 614 35 565 q 281 664 159 664 l 421 664 l 421 748 l -21 748 l -21 908 l 828 908 l 828 748 l 665 748 l 665 508 l 336 508 q 275 493 297 508 q 253 457 253 478 q 277 418 253 435 q 480 443 365 443 q 670 384 595 443 q 745 233 745 326 q 681 84 745 151 q 494 -9 617 16 l 609 -131 l 460 -225 l 275 -22 z "},"ई":{"ha":807,"x_min":-21,"x_max":828,"o":"m 275 -22 q 111 27 166 -15 q 56 114 56 69 q 90 191 56 159 q 174 223 123 223 q 332 156 253 223 q 421 165 383 157 q 479 187 459 174 q 517 236 517 211 q 447 272 517 272 q 282 230 376 272 l 269 230 q 89 350 143 288 q 35 488 35 412 q 97 614 35 565 q 281 664 159 664 l 421 664 l 421 748 l -21 748 l -21 908 l 380 908 q 334 1073 334 977 q 418 1232 334 1168 q 653 1295 502 1295 q 770 1281 712 1295 l 762 1145 q 698 1150 731 1150 q 602 1118 637 1150 q 568 1034 568 1086 q 609 908 568 966 l 828 908 l 828 748 l 665 748 l 665 508 l 336 508 q 275 493 297 508 q 253 457 253 478 q 277 418 253 435 q 480 443 365 443 q 670 384 595 443 q 745 233 745 326 q 681 84 745 151 q 494 -9 617 16 l 609 -131 l 460 -225 l 275 -22 z "},"उ":{"ha":790,"x_min":-21,"x_max":811,"o":"m 409 -10 q 13 118 200 -10 l 72 304 q 217 227 138 256 q 355 198 296 198 q 447 224 414 198 q 479 294 479 250 q 457 354 479 326 q 390 397 435 381 q 246 380 324 383 l 199 378 l 159 574 q 321 589 273 579 q 392 613 368 598 q 425 643 416 627 q 434 683 434 659 q 421 723 434 707 q 375 748 408 739 l -21 748 l -21 908 l 811 908 l 811 748 l 640 748 q 657 652 657 708 q 587 489 657 555 q 686 384 650 446 q 721 253 721 323 q 639 64 721 137 q 409 -10 556 -10 z "},"ऊ":{"ha":1157,"x_min":-21,"x_max":1178,"o":"m 895 242 q 876 294 895 275 q 822 312 857 312 q 720 271 772 312 q 721 253 721 265 q 639 64 721 137 q 409 -10 556 -10 q 13 118 200 -10 l 72 304 q 217 227 138 256 q 355 198 296 198 q 447 224 414 198 q 479 294 479 250 q 457 354 479 326 q 390 397 435 381 q 246 380 324 383 l 199 378 l 159 574 q 321 589 273 579 q 392 613 368 598 q 425 643 416 627 q 434 683 434 659 q 421 723 434 707 q 375 748 408 739 l -21 748 l -21 908 l 1178 908 l 1178 748 l 640 748 q 657 652 657 708 q 587 489 657 555 q 615 468 600 480 q 785 502 702 502 q 1020 421 931 502 q 1109 220 1109 340 q 1085 85 1109 150 q 1022 -32 1062 20 l 810 48 q 895 242 895 166 z "},"ऋ":{"ha":1246,"x_min":-21,"x_max":1267,"o":"m 747 0 l 503 0 l 503 190 l 202 44 l 96 228 l 453 392 q 267 458 351 458 q 80 398 183 458 l 22 607 q 123 644 67 630 q 229 659 179 659 q 475 581 352 659 l 503 565 l 503 748 l -21 748 l -21 908 l 1267 908 l 1267 748 l 747 748 l 747 505 q 805 496 774 496 q 865 501 835 496 q 853 561 853 532 q 882 613 853 591 q 966 635 911 635 q 1121 600 1062 635 q 1180 508 1180 566 q 1124 400 1180 450 q 1182 220 1182 310 q 1120 81 1182 142 q 945 8 1058 21 l 838 148 q 945 194 911 164 q 980 257 980 223 q 962 320 980 290 q 840 305 896 305 q 747 312 785 305 l 747 0 z "},"ऌ":{"ha":1206,"x_min":-21,"x_max":1227,"o":"m 1025 -117 q 832 -60 907 -117 q 756 80 756 -4 q 802 197 756 148 q 923 259 848 245 q 940 339 940 300 q 918 399 940 378 q 863 420 897 420 q 758 355 805 420 q 687 166 712 290 l 460 228 q 517 411 479 331 q 417 438 474 438 q 324 400 360 438 q 287 308 287 361 q 319 203 287 256 q 430 74 350 150 l 255 -22 q 55 369 55 159 q 75 474 55 424 q 133 561 95 523 q 228 622 170 600 q 357 645 286 645 q 635 562 508 645 q 829 627 718 626 l 829 748 l -21 748 l -21 908 l 1227 908 l 1227 748 l 1074 748 l 1074 541 q 1165 319 1165 455 q 1151 218 1165 271 q 1119 136 1138 166 l 1087 136 q 989 118 1019 136 q 960 75 960 100 q 981 35 960 50 q 1039 20 1001 20 q 1168 46 1102 20 l 1192 -89 q 1025 -117 1117 -117 z "},"ऍ":{"ha":935,"x_min":-21,"x_max":956,"o":"m 547 -26 q 501 42 547 11 l 228 226 q 123 334 151 278 q 95 483 95 389 l 95 748 l -21 748 l -21 908 l 956 908 l 956 748 l 816 748 l 816 519 q 795 393 816 446 q 725 290 774 341 l 535 383 q 563 469 555 429 q 572 568 572 509 l 572 748 l 339 748 l 339 485 q 347 420 339 444 q 373 376 355 395 q 429 332 390 357 l 698 155 q 791 71 763 112 q 818 -25 818 30 q 777 -148 818 -79 l 524 -93 q 547 -26 547 -48 m 458 958 q 277 989 360 958 q 113 1087 194 1021 l 164 1246 q 305 1159 236 1188 q 459 1130 374 1130 q 731 1244 600 1130 l 791 1088 q 458 958 660 958 z "},"ऎ":{"ha":935,"x_min":-21,"x_max":956,"o":"m 547 -26 q 501 42 547 11 l 228 226 q 123 334 151 278 q 95 483 95 389 l 95 748 l -21 748 l -21 908 l 569 908 l 569 930 q 492 1006 569 1006 q 418 993 473 1006 q 312 981 364 981 q 175 1015 234 981 q 63 1117 116 1049 l 150 1255 q 234 1187 199 1206 q 304 1168 269 1168 q 421 1188 338 1168 q 567 1208 503 1208 q 726 1142 668 1208 q 784 962 784 1076 l 784 908 l 956 908 l 956 748 l 816 748 l 816 519 q 795 393 816 446 q 725 290 774 341 l 535 383 q 563 469 555 429 q 572 568 572 509 l 572 748 l 339 748 l 339 485 q 347 420 339 444 q 373 376 355 395 q 429 332 390 357 l 698 155 q 791 71 763 112 q 818 -25 818 30 q 777 -148 818 -79 l 524 -93 q 547 -26 547 -48 z "},"ए":{"ha":935,"x_min":-21,"x_max":956,"o":"m 547 -26 q 501 42 547 11 l 228 226 q 123 334 151 278 q 95 483 95 389 l 95 748 l -21 748 l -21 908 l 956 908 l 956 748 l 816 748 l 816 519 q 795 393 816 446 q 725 290 774 341 l 535 383 q 563 469 555 429 q 572 568 572 509 l 572 748 l 339 748 l 339 485 q 347 420 339 444 q 373 376 355 395 q 429 332 390 357 l 698 155 q 791 71 763 112 q 818 -25 818 30 q 777 -148 818 -79 l 524 -93 q 547 -26 547 -48 z "},"ऐ":{"ha":935,"x_min":-21,"x_max":956,"o":"m 547 -26 q 501 42 547 11 l 228 226 q 123 334 151 278 q 95 483 95 389 l 95 748 l -21 748 l -21 908 l 506 908 l 235 1175 l 415 1303 l 787 908 l 956 908 l 956 748 l 816 748 l 816 519 q 795 393 816 446 q 725 290 774 341 l 535 383 q 563 469 555 429 q 572 568 572 509 l 572 748 l 339 748 l 339 485 q 347 420 339 444 q 373 376 355 395 q 429 332 390 357 l 698 155 q 791 71 763 112 q 818 -25 818 30 q 777 -148 818 -79 l 524 -93 q 547 -26 547 -48 z "},"ऑ":{"ha":1668,"x_min":45,"x_max":1739,"o":"m 826 0 l 826 300 q 737 292 775 292 q 664 294 698 292 q 584 124 663 192 q 377 55 505 55 q 206 82 285 55 q 45 161 126 109 l 90 337 q 324 249 217 249 q 409 275 380 249 q 439 345 439 301 q 391 422 439 390 q 230 397 320 404 l 213 396 l 174 576 q 392 632 359 591 q 407 681 407 651 q 385 727 407 711 q 324 744 364 744 q 128 684 240 744 l 75 866 q 335 921 195 921 q 548 851 474 921 q 622 662 622 782 q 559 507 622 568 q 600 469 582 489 q 659 466 625 466 q 826 508 753 466 l 826 748 l 708 748 l 708 908 l 1689 908 l 1689 748 l 1536 748 l 1536 0 l 1291 0 l 1291 748 l 1070 748 l 1070 0 l 826 0 m 1406 956 q 1226 988 1309 956 q 1062 1086 1142 1020 l 1113 1245 q 1254 1158 1185 1187 q 1408 1128 1323 1128 q 1680 1243 1549 1128 l 1739 1087 q 1406 956 1609 956 z "},"ऒ":{"ha":1668,"x_min":45,"x_max":1689,"o":"m 826 0 l 826 300 q 737 292 775 292 q 664 294 698 292 q 584 124 663 192 q 377 55 505 55 q 206 82 285 55 q 45 161 126 109 l 90 337 q 324 249 217 249 q 409 275 380 249 q 439 345 439 301 q 391 422 439 390 q 230 397 320 404 l 213 396 l 174 576 q 392 632 359 591 q 407 681 407 651 q 385 727 407 711 q 324 744 364 744 q 128 684 240 744 l 75 866 q 335 921 195 921 q 548 851 474 921 q 622 662 622 782 q 559 507 622 568 q 600 469 582 489 q 659 466 625 466 q 826 508 753 466 l 826 748 l 708 748 l 708 908 l 1290 908 l 1290 930 q 1212 1006 1290 1006 q 1139 993 1194 1006 q 1032 981 1084 981 q 895 1015 954 981 q 784 1117 836 1049 l 871 1255 q 954 1187 919 1206 q 1024 1168 989 1168 q 1141 1188 1059 1168 q 1288 1208 1223 1208 q 1446 1142 1388 1208 q 1504 962 1504 1076 l 1504 908 l 1689 908 l 1689 748 l 1536 748 l 1536 0 l 1291 0 l 1291 748 l 1070 748 l 1070 0 l 826 0 z "},"ओ":{"ha":1668,"x_min":45,"x_max":1689,"o":"m 826 0 l 826 300 q 737 292 775 292 q 664 294 698 292 q 584 124 663 192 q 377 55 505 55 q 206 82 285 55 q 45 161 126 109 l 90 337 q 324 249 217 249 q 409 275 380 249 q 439 345 439 301 q 391 422 439 390 q 230 397 320 404 l 213 396 l 174 576 q 392 632 359 591 q 407 681 407 651 q 385 727 407 711 q 324 744 364 744 q 128 684 240 744 l 75 866 q 335 921 195 921 q 548 851 474 921 q 622 662 622 782 q 559 507 622 568 q 600 469 582 489 q 659 466 625 466 q 826 508 753 466 l 826 748 l 708 748 l 708 908 l 1215 908 l 944 1175 l 1124 1303 l 1496 908 l 1689 908 l 1689 748 l 1536 748 l 1536 0 l 1291 0 l 1291 748 l 1070 748 l 1070 0 l 826 0 z "},"औ":{"ha":1668,"x_min":45,"x_max":1689,"o":"m 826 0 l 826 300 q 737 292 775 292 q 664 294 698 292 q 584 124 663 192 q 377 55 505 55 q 206 82 285 55 q 45 161 126 109 l 90 337 q 324 249 217 249 q 409 275 380 249 q 439 345 439 301 q 391 422 439 390 q 230 397 320 404 l 213 396 l 174 576 q 392 632 359 591 q 407 681 407 651 q 385 727 407 711 q 324 744 364 744 q 128 684 240 744 l 75 866 q 335 921 195 921 q 548 851 474 921 q 622 662 622 782 q 559 507 622 568 q 600 469 582 489 q 659 466 625 466 q 826 508 753 466 l 826 748 l 708 748 l 708 908 l 984 908 l 729 1123 l 899 1262 l 1287 908 l 1300 908 l 1150 1274 l 1365 1334 l 1520 908 l 1689 908 l 1689 748 l 1536 748 l 1536 0 l 1291 0 l 1291 748 l 1070 748 l 1070 0 l 826 0 z "},"क":{"ha":1237,"x_min":-21,"x_max":1258,"o":"m 738 0 l 494 0 l 494 145 q 350 119 434 119 q 193 161 267 119 q 77 272 119 204 q 36 418 36 341 q 105 585 36 520 q 302 652 173 650 q 494 619 407 654 l 494 748 l -21 748 l -21 908 l 1258 908 l 1258 748 l 738 748 l 738 592 q 820 595 773 595 q 1066 511 968 595 q 1163 307 1163 427 q 1075 56 1163 174 l 860 128 q 918 228 899 183 q 936 311 936 272 q 913 372 936 350 q 852 395 890 395 q 738 340 789 395 l 738 0 m 241 386 q 241 367 241 386 q 266 325 241 348 q 334 303 292 303 q 418 326 376 303 q 494 393 461 349 l 494 452 q 368 477 433 477 q 272 450 303 477 q 241 386 241 423 z "},"ख":{"ha":1390,"x_min":-21,"x_max":1411,"o":"m 850 371 q 1013 443 947 371 l 1013 496 q 866 523 947 523 q 797 500 823 523 q 772 445 772 477 q 794 393 772 414 q 850 371 816 371 m 826 -26 q 474 31 638 -26 q 207 190 310 88 q 44 409 91 306 q 20 498 20 457 q 49 570 20 539 q 118 601 78 601 q 187 586 159 601 q 246 534 216 570 q 298 667 298 575 l 298 748 l -21 748 l -21 908 l 1411 908 l 1411 748 l 1257 748 l 1257 0 l 1069 0 q 826 -26 951 -26 m 820 139 q 1013 166 920 139 l 1013 227 q 867 205 951 205 q 667 285 749 205 q 585 475 585 364 q 645 624 585 567 q 820 682 706 682 q 1013 650 935 682 l 1013 748 l 542 748 l 542 655 q 449 383 542 480 q 357 312 411 344 l 362 308 q 820 139 531 139 z "},"ग":{"ha":1051,"x_min":-21,"x_max":1072,"o":"m 674 0 l 674 748 l 451 748 l 451 292 q 356 180 451 180 q 213 222 286 180 q 93 322 139 264 q 48 425 48 379 q 70 481 48 460 q 137 502 92 502 l 206 502 l 206 748 l -21 748 l -21 908 l 1072 908 l 1072 748 l 918 748 l 918 0 l 674 0 z "},"घ":{"ha":1097,"x_min":-21,"x_max":1119,"o":"m 429 352 q 452 308 429 325 q 522 291 475 291 q 625 315 569 291 q 721 385 680 340 l 721 748 l 312 748 q 305 701 305 727 q 322 651 305 675 q 376 614 339 628 q 525 639 439 639 l 560 639 l 605 447 l 585 447 q 469 420 508 447 q 429 352 429 392 m 721 0 l 721 113 q 536 80 650 80 q 396 105 460 80 q 291 170 332 129 q 227 263 250 211 q 204 376 204 315 q 232 492 204 437 q 101 584 147 524 q 55 719 55 645 q 57 748 55 730 l -21 748 l -21 908 l 1119 908 l 1119 748 l 965 748 l 965 0 l 721 0 z "},"ङ":{"ha":1056,"x_min":-21,"x_max":1077,"o":"m 477 -24 q 67 66 279 -24 l 109 241 q 435 152 288 152 q 581 220 581 152 q 562 257 581 244 q 503 270 542 270 q 330 230 416 270 l 310 230 q 130 349 185 285 q 74 492 74 412 q 126 609 74 560 q 199 650 152 635 q 306 664 245 664 l 485 664 l 485 748 l -21 748 l -21 908 l 1077 908 l 1077 748 l 730 748 l 730 508 l 374 508 q 319 493 336 508 q 301 456 301 477 q 317 419 301 435 q 512 445 395 445 q 734 381 657 445 q 812 218 812 316 q 739 47 812 112 q 634 -5 701 13 q 477 -24 567 -24 m 904 354 q 873 354 904 354 q 811 385 841 354 q 781 461 781 417 q 812 538 781 505 q 907 570 843 570 q 1000 538 970 570 q 1029 462 1029 506 q 998 386 1029 418 q 904 354 968 354 z "},"च":{"ha":1054,"x_min":-21,"x_max":1075,"o":"m 678 0 l 678 110 q 520 88 609 88 q 278 167 368 88 q 187 367 187 246 q 199 445 187 409 l 44 445 l 44 638 l 577 638 l 577 445 l 504 445 q 434 414 456 439 q 411 357 411 389 q 436 304 411 325 q 506 283 461 283 q 597 305 550 283 q 678 365 645 327 l 678 748 l -21 748 l -21 908 l 1075 908 l 1075 748 l 922 748 l 922 0 l 678 0 z "},"छ":{"ha":1179,"x_min":-21,"x_max":1200,"o":"m 853 519 q 838 519 853 519 q 805 499 822 519 q 789 440 789 478 q 807 370 789 402 q 869 303 825 338 q 916 423 916 362 q 900 494 916 468 q 853 519 883 519 m 537 153 q 736 199 640 153 q 618 338 654 268 q 582 487 582 409 q 643 628 582 565 q 803 699 704 691 l 803 748 l 364 748 q 305 706 325 733 q 285 646 285 679 q 355 552 285 584 q 477 573 409 570 l 492 573 l 552 376 l 539 376 q 418 337 456 369 q 381 261 381 304 q 422 185 381 218 q 537 153 463 153 m 555 -39 q 399 -20 470 -39 q 281 30 329 -1 q 199 104 233 62 q 136 286 136 184 q 190 442 136 371 q 43 671 43 522 q 63 748 43 709 l -21 748 l -21 908 l 1200 908 l 1200 748 l 1047 748 l 1047 613 q 1121 404 1121 533 q 1080 241 1121 320 q 968 99 1040 161 q 789 -1 897 37 q 555 -39 680 -39 z "},"ज":{"ha":1219,"x_min":-21,"x_max":1240,"o":"m 843 0 l 843 438 l 642 438 q 696 265 696 364 q 621 96 696 166 q 427 25 546 25 q 198 92 308 25 q 1 283 89 159 l 114 446 q 270 285 199 333 q 392 238 341 238 q 451 259 428 238 q 473 314 473 281 q 426 409 473 364 q 296 470 378 455 l 296 638 l 843 638 l 843 748 l -21 748 l -21 908 l 1240 908 l 1240 748 l 1087 748 l 1087 0 l 843 0 z "},"झ":{"ha":1256,"x_min":-21,"x_max":1277,"o":"m 275 -22 q 111 27 166 -15 q 56 114 56 69 q 90 191 56 159 q 174 223 123 223 q 332 156 253 223 q 421 165 383 157 q 479 187 459 174 q 517 236 517 211 q 447 272 517 272 q 282 230 376 272 l 269 230 q 89 350 143 288 q 35 488 35 412 q 97 614 35 565 q 281 664 159 664 l 421 664 l 421 748 l -21 748 l -21 908 l 1277 908 l 1277 748 l 1123 748 l 1123 0 l 879 0 l 879 201 q 817 197 846 197 q 742 200 789 197 q 667 71 730 128 q 494 -9 605 14 l 609 -131 l 460 -225 l 275 -22 m 739 381 q 879 416 816 381 l 879 748 l 665 748 l 665 508 l 336 508 q 275 493 297 508 q 253 457 253 478 q 277 418 253 435 q 479 443 365 443 q 666 387 593 443 q 739 381 707 381 z "},"ञ":{"ha":1287,"x_min":-21,"x_max":1308,"o":"m 910 0 l 910 287 q 823 283 875 283 q 723 290 771 283 q 627 113 705 176 q 428 51 549 51 q 6 254 201 51 l 85 426 q 242 299 176 334 q 376 263 308 263 q 481 295 444 263 q 517 372 517 326 q 480 447 516 418 q 392 475 444 475 q 236 418 303 475 l 138 599 q 244 658 183 635 q 376 681 305 681 q 568 629 482 681 q 696 492 654 578 q 767 487 730 487 q 910 515 836 487 l 910 748 l -21 748 l -21 908 l 1308 908 l 1308 748 l 1154 748 l 1154 0 l 910 0 z "},"ट":{"ha":857,"x_min":-21,"x_max":878,"o":"m 784 55 q 653 14 711 26 q 501 3 595 3 q 322 32 408 3 q 177 109 235 60 q 87 221 119 158 q 55 352 55 284 q 144 563 55 489 q 399 638 233 638 l 470 638 l 470 748 l -21 748 l -21 908 l 878 908 l 878 748 l 714 748 l 714 459 l 468 459 q 343 419 386 459 q 300 322 300 379 q 343 234 300 265 q 467 202 386 202 q 589 218 527 202 q 737 265 650 233 l 784 55 z "},"ठ":{"ha":958,"x_min":-21,"x_max":979,"o":"m 278 323 q 278 294 278 323 q 330 224 278 264 q 477 185 383 185 q 627 227 571 185 q 684 340 684 269 q 665 407 684 375 q 614 460 647 438 l 480 460 q 329 421 380 460 q 278 323 278 383 m 813 85 q 791 62 813 85 q 691 13 769 39 q 517 -13 614 -13 q 344 7 421 -13 q 215 64 268 28 q 122 146 161 99 q 48 357 48 239 q 139 563 48 489 q 397 638 230 638 l 563 638 l 563 748 l -21 748 l -21 908 l 979 908 l 979 748 l 807 748 l 807 542 q 874 433 849 494 q 899 306 899 371 q 878 186 899 241 q 813 85 857 131 z "},"ड":{"ha":885,"x_min":-21,"x_max":906,"o":"m 477 -24 q 67 66 279 -24 l 109 241 q 435 152 288 152 q 581 220 581 152 q 562 257 581 244 q 503 270 542 270 q 330 230 416 270 l 310 230 q 130 349 185 285 q 74 492 74 412 q 126 609 74 560 q 199 650 152 635 q 306 664 245 664 l 485 664 l 485 748 l -21 748 l -21 908 l 906 908 l 906 748 l 730 748 l 730 508 l 374 508 q 319 493 336 508 q 301 456 301 477 q 317 419 301 435 q 512 445 395 445 q 734 381 657 445 q 812 218 812 316 q 739 47 812 112 q 634 -5 701 13 q 477 -24 567 -24 z "},"ढ":{"ha":917,"x_min":-21,"x_max":938,"o":"m 543 174 q 549 128 543 152 q 666 157 622 132 q 709 214 709 181 q 694 248 709 235 q 643 261 678 261 q 575 234 607 261 q 543 174 543 208 m 555 -10 q 347 21 444 -10 q 186 101 251 51 q 84 216 121 152 q 47 345 47 281 q 66 459 47 409 q 127 550 86 508 q 240 614 168 591 q 411 638 312 638 l 520 638 l 520 748 l -21 748 l -21 908 l 938 908 l 938 748 l 765 748 l 765 468 l 487 468 q 319 422 370 468 q 268 302 268 376 q 344 176 268 228 q 343 197 343 183 q 415 343 343 284 q 615 403 487 403 q 822 345 744 403 q 900 206 900 286 q 815 51 900 111 q 555 -10 730 -10 z "},"ण":{"ha":1277,"x_min":-21,"x_max":1298,"o":"m 330 469 q 351 397 330 423 q 409 371 372 371 q 469 403 446 371 q 493 493 493 435 l 493 748 l 330 748 l 330 469 m 899 0 l 899 748 l 737 748 l 737 513 q 663 279 737 367 q 565 210 626 235 q 422 186 503 186 q 275 211 340 186 q 169 280 210 236 q 86 511 86 370 l 86 748 l -21 748 l -21 908 l 1298 908 l 1298 748 l 1144 748 l 1144 0 l 899 0 z "},"त":{"ha":942,"x_min":-21,"x_max":963,"o":"m 407 638 l 566 638 l 566 748 l -21 748 l -21 908 l 963 908 l 963 748 l 810 748 l 810 0 l 566 0 l 566 435 l 463 435 q 334 396 374 435 q 294 294 294 357 q 318 184 294 244 q 393 34 341 124 l 190 -23 q 62 355 60 188 q 143 556 64 479 q 251 616 184 595 q 407 638 318 638 z "},"थ":{"ha":1056,"x_min":-10,"x_max":1077,"o":"m 261 783 q 203 720 203 783 q 232 663 203 690 q 330 613 262 637 q 355 689 355 648 q 327 757 355 730 q 261 783 298 783 m 679 0 l 679 159 q 558 144 626 144 q 269 230 402 144 q 62 457 136 316 l 67 468 q 198 508 136 480 q 42 620 94 553 q -10 765 -10 687 q 49 895 -10 842 q 213 948 108 948 q 360 923 294 948 q 470 858 427 899 q 538 765 514 817 q 562 657 562 713 q 506 489 562 562 q 351 375 449 416 q 476 337 406 337 q 679 437 605 337 l 679 748 l 623 748 l 623 908 l 1077 908 l 1077 748 l 923 748 l 923 0 l 679 0 z "},"द":{"ha":876,"x_min":-21,"x_max":897,"o":"m 492 37 q 306 62 390 37 q 166 132 222 88 q 79 237 110 177 q 48 359 48 296 q 68 471 48 422 q 129 558 88 520 q 238 617 170 595 q 398 638 307 638 l 493 638 l 493 748 l -21 748 l -21 908 l 897 908 l 897 748 l 737 748 l 737 467 l 486 467 q 332 429 381 467 q 282 334 282 391 q 327 241 282 276 q 440 206 371 206 l 448 206 q 435 271 435 236 q 468 334 435 305 q 568 362 501 362 q 746 319 671 362 q 822 218 822 276 q 797 149 822 184 q 724 87 772 113 l 826 -102 l 650 -176 l 535 38 q 492 37 507 37 z "},"ध":{"ha":1076,"x_min":-47,"x_max":1097,"o":"m 206 666 q 273 706 249 678 q 297 763 297 733 q 279 808 297 792 q 231 824 262 824 q 178 801 200 824 q 156 744 156 777 q 206 666 156 695 m 699 0 l 699 114 q 517 80 626 80 q 375 104 440 80 q 269 169 310 128 q 205 262 228 210 q 183 373 183 315 q 207 485 183 432 q 30 582 96 516 q -47 758 -47 659 q 21 921 -47 857 q 212 985 88 985 q 410 918 335 985 q 484 757 484 850 q 443 635 484 688 q 503 639 475 639 l 538 639 l 582 447 l 559 447 q 443 418 480 447 q 407 352 407 390 q 431 308 407 325 q 494 291 456 291 q 607 316 553 291 q 699 384 661 341 l 699 748 l 612 748 l 612 908 l 1097 908 l 1097 748 l 944 748 l 944 0 l 699 0 z "},"न":{"ha":939,"x_min":-21,"x_max":960,"o":"m 562 0 l 562 397 l 343 397 l 343 267 q 322 194 343 220 q 263 167 300 167 q 151 226 210 167 q 75 338 109 268 q 42 475 42 408 q 176 596 42 596 l 562 596 l 562 748 l -21 748 l -21 908 l 960 908 l 960 748 l 806 748 l 806 0 l 562 0 z "},"ऩ":{"ha":939,"x_min":-21,"x_max":960,"o":"m 194 -152 q 167 -152 194 -152 q 109 -121 140 -152 q 79 -50 79 -90 q 109 21 79 -10 q 194 52 139 52 q 278 21 249 52 q 308 -49 308 -9 q 278 -120 308 -89 q 194 -152 249 -152 m 562 0 l 562 397 l 343 397 l 343 267 q 322 194 343 220 q 263 167 300 167 q 151 226 210 167 q 75 338 109 268 q 42 475 42 408 q 176 596 42 596 l 562 596 l 562 748 l -21 748 l -21 908 l 960 908 l 960 748 l 806 748 l 806 0 l 562 0 z "},"प":{"ha":917,"x_min":-21,"x_max":938,"o":"m 404 385 q 541 452 484 385 l 541 748 l 324 748 l 324 483 q 344 411 324 436 q 404 385 365 385 m 541 0 l 541 202 q 430 192 489 192 q 175 282 271 192 q 79 531 79 373 l 79 748 l -21 748 l -21 908 l 938 908 l 938 748 l 785 748 l 785 0 l 541 0 z "},"फ":{"ha":1286,"x_min":-21,"x_max":1307,"o":"m 786 0 l 542 0 l 542 216 q 441 207 501 207 q 181 298 277 207 q 86 553 86 390 l 86 748 l -21 748 l -21 908 l 1307 908 l 1307 748 l 786 748 l 786 576 q 884 581 826 581 q 1129 497 1032 581 q 1227 293 1227 413 q 1139 42 1227 160 l 924 114 q 982 213 963 169 q 1000 297 1000 258 q 977 358 1000 336 q 916 381 954 381 q 786 308 845 381 l 786 0 m 411 401 q 542 455 483 401 l 542 748 l 330 748 l 330 497 q 351 426 330 450 q 411 401 372 401 z "},"ब":{"ha":917,"x_min":-21,"x_max":938,"o":"m 369 285 q 422 290 398 285 l 279 454 q 260 387 260 430 q 289 315 260 344 q 369 285 317 285 m 529 345 q 540 355 536 350 l 540 475 q 397 498 466 498 l 394 498 l 529 345 m 540 0 l 540 126 q 402 103 481 103 q 253 130 322 103 q 139 204 185 158 q 67 309 93 250 q 41 432 41 369 q 123 604 41 536 q 334 671 204 671 q 540 645 448 671 l 540 748 l -21 748 l -21 908 l 938 908 l 938 748 l 784 748 l 784 0 l 540 0 z "},"भ":{"ha":1099,"x_min":-73,"x_max":1120,"o":"m 722 0 l 722 288 l 510 288 l 510 231 q 426 131 510 131 q 328 157 382 131 q 233 222 273 183 q 170 310 194 261 q 145 399 145 358 q 169 463 145 440 q 237 487 192 487 l 286 487 l 286 523 q 19 601 112 527 q -73 782 -73 675 q -18 919 -73 861 q 57 965 10 948 q 166 982 105 982 q 414 895 317 982 q 510 673 510 808 l 510 487 l 722 487 l 722 748 l 633 748 l 633 908 l 1120 908 l 1120 748 l 966 748 l 966 0 l 722 0 m 134 753 q 172 695 134 717 q 286 673 211 674 l 286 705 q 258 784 286 754 q 190 815 231 815 q 150 796 165 815 q 134 753 134 777 z "},"म":{"ha":996,"x_min":-21,"x_max":1017,"o":"m 619 0 l 619 288 l 395 288 l 395 231 q 310 131 395 131 q 211 157 265 131 q 118 222 157 183 q 53 310 78 261 q 29 399 29 358 q 53 463 29 440 q 121 487 77 487 l 150 487 l 150 748 l -21 748 l -21 908 l 1017 908 l 1017 748 l 864 748 l 864 0 l 619 0 m 619 748 l 395 748 l 395 487 l 619 487 l 619 748 z "},"य":{"ha":998,"x_min":-21,"x_max":1020,"o":"m 295 383 q 416 344 349 344 q 621 438 549 344 l 621 748 l 469 748 l 469 655 q 428 487 469 552 q 295 383 387 421 m 621 0 l 621 159 q 505 144 570 144 q 211 230 343 144 q 4 461 79 315 l 8 473 q 174 556 124 511 q 225 671 225 602 l 225 748 l -21 748 l -21 908 l 1020 908 l 1020 748 l 866 748 l 866 0 l 621 0 z "},"र":{"ha":705,"x_min":-21,"x_max":726,"o":"m 20 519 q 50 591 20 560 q 124 621 79 621 q 235 557 186 621 l 269 512 q 347 570 324 534 q 369 664 369 606 l 369 748 l -21 748 l -21 908 l 726 908 l 726 748 l 614 748 l 614 626 q 398 312 614 414 l 584 66 l 416 -46 l 81 390 q 35 460 50 430 q 20 519 20 489 z "},"ऱ":{"ha":705,"x_min":-21,"x_max":726,"o":"m 113 -77 q 86 -77 113 -77 q 28 -46 59 -77 q -2 25 -2 -15 q 28 95 -2 65 q 113 126 58 126 q 197 96 168 126 q 227 25 227 65 q 197 -46 227 -15 q 113 -77 168 -77 m 20 519 q 50 591 20 560 q 124 621 79 621 q 235 557 186 621 l 269 512 q 347 570 324 534 q 369 664 369 606 l 369 748 l -21 748 l -21 908 l 726 908 l 726 748 l 614 748 l 614 626 q 398 312 614 414 l 584 66 l 416 -46 l 81 390 q 35 460 50 430 q 20 519 20 489 z "},"ल":{"ha":1190,"x_min":-48,"x_max":1211,"o":"m 21 353 q 107 561 21 476 q 337 645 194 645 q 675 513 525 645 l 814 631 l 814 748 l -48 748 l -48 908 l 1211 908 l 1211 748 l 1058 748 l 1058 0 l 814 0 l 814 343 l 550 128 l 398 278 l 517 378 q 381 432 455 432 q 293 395 327 432 q 259 307 259 358 q 291 203 259 256 q 402 74 322 150 l 213 -27 q 72 153 123 55 q 21 353 21 250 z "},"ळ":{"ha":1226,"x_min":-21,"x_max":1247,"o":"m 693 253 q 823 224 758 224 q 924 260 887 224 q 961 355 961 296 q 936 421 961 397 q 872 445 911 445 q 794 413 833 445 q 730 324 756 381 q 693 253 713 288 m 334 228 q 423 268 379 228 q 503 392 467 308 q 517 421 510 409 q 391 446 451 446 q 295 408 331 446 q 258 323 258 370 q 279 252 258 275 q 334 228 300 228 m 1175 332 q 1175 263 1175 332 q 1093 111 1175 195 q 866 27 1012 27 q 581 115 720 27 q 358 32 484 32 q 120 120 204 32 q 37 345 37 207 q 74 494 37 427 q 183 602 111 561 q 349 642 255 642 q 619 563 493 642 q 849 647 711 645 l 849 748 l -21 748 l -21 908 l 1247 908 l 1247 748 l 1093 748 l 1093 555 q 1175 332 1175 469 z "},"ऴ":{"ha":1226,"x_min":-21,"x_max":1247,"o":"m 156 -217 q 128 -217 156 -217 q 71 -186 101 -217 q 40 -115 40 -155 q 70 -44 40 -75 q 155 -13 100 -13 q 239 -44 210 -13 q 269 -114 269 -74 q 239 -186 269 -154 q 156 -217 210 -217 m 693 253 q 823 224 758 224 q 924 260 887 224 q 961 355 961 296 q 936 421 961 397 q 872 445 911 445 q 794 413 833 445 q 730 324 756 381 q 693 253 713 288 m 334 228 q 423 268 379 228 q 503 392 467 308 q 517 421 510 409 q 391 446 451 446 q 295 408 331 446 q 258 323 258 370 q 279 252 258 275 q 334 228 300 228 m 1175 332 q 1175 263 1175 332 q 1093 111 1175 195 q 866 27 1012 27 q 581 115 720 27 q 358 32 484 32 q 120 120 204 32 q 37 345 37 207 q 74 494 37 427 q 183 602 111 561 q 349 642 255 642 q 619 563 493 642 q 849 647 711 645 l 849 748 l -21 748 l -21 908 l 1247 908 l 1247 748 l 1093 748 l 1093 555 q 1175 332 1175 469 z "},"व":{"ha":916,"x_min":-21,"x_max":937,"o":"m 367 291 q 539 365 462 291 l 539 468 q 403 491 467 491 q 303 462 338 491 q 267 390 267 433 q 295 319 267 346 q 367 291 322 291 m 539 0 l 539 127 q 400 105 482 105 q 212 150 295 105 q 85 270 128 196 q 41 432 41 344 q 122 602 41 536 q 333 668 203 668 q 539 642 447 668 l 539 748 l -21 748 l -21 908 l 937 908 l 937 748 l 783 748 l 783 0 l 539 0 z "},"श":{"ha":1227,"x_min":86,"x_max":1248,"o":"m 215 150 q 116 190 146 150 q 86 293 86 230 q 126 407 86 357 q 227 457 166 457 q 355 401 288 457 q 451 473 413 428 q 185 556 274 484 q 96 739 96 627 q 164 888 96 824 q 352 951 231 951 q 605 856 506 951 q 705 606 705 761 q 647 406 705 498 q 496 249 589 314 l 666 83 l 526 -45 l 312 164 q 215 150 258 150 m 310 711 q 352 649 310 673 q 505 619 395 624 l 505 624 q 467 728 505 687 q 379 769 429 769 q 329 752 347 769 q 310 711 310 736 m 850 0 l 850 748 l 744 748 l 744 908 l 1248 908 l 1248 748 l 1095 748 l 1095 0 l 850 0 z "},"ष":{"ha":919,"x_min":-21,"x_max":940,"o":"m 312 482 q 338 410 312 436 q 410 383 363 383 q 497 403 458 383 l 312 626 l 312 482 m 543 748 l 369 748 l 543 538 l 543 748 m 543 0 l 543 201 q 431 190 490 190 q 176 282 272 190 q 79 531 79 373 l 79 748 l -21 748 l -21 908 l 940 908 l 940 748 l 787 748 l 787 0 l 543 0 z "},"स":{"ha":1144,"x_min":-21,"x_max":1165,"o":"m 21 522 q 50 592 21 563 q 124 621 78 621 q 235 557 186 621 l 251 536 q 296 589 282 558 q 310 671 310 621 l 310 748 l -21 748 l -21 908 l 1165 908 l 1165 748 l 1011 748 l 1011 0 l 767 0 l 767 294 q 657 284 718 284 q 378 338 514 284 l 584 66 l 411 -45 l 77 391 q 21 522 21 462 m 617 494 q 767 517 694 494 l 767 748 l 554 748 l 554 633 q 525 503 554 565 q 617 494 578 494 z "},"ह":{"ha":891,"x_min":-21,"x_max":912,"o":"m 120 114 q 167 271 120 203 q 63 370 100 316 q 27 480 27 423 q 89 607 27 558 q 282 657 152 657 l 515 657 l 515 748 l -21 748 l -21 908 l 912 908 l 912 748 l 759 748 l 759 496 l 374 496 q 276 435 276 496 q 317 379 276 402 q 473 403 386 403 q 736 330 635 403 q 836 146 836 256 q 805 16 836 70 l 600 56 q 616 134 616 95 q 587 198 616 173 q 498 224 558 224 q 400 184 437 224 q 362 98 362 145 q 370 45 362 67 q 404 0 379 22 q 473 -38 430 -22 q 755 -94 566 -74 l 692 -256 q 202 -84 342 -228 q 120 114 120 -1 z "},"ऺ":{"ha":0,"x_min":-378,"x_max":-134,"o":"m -378 1059 l -134 1059 l -134 783 l -378 783 l -378 1059 z "},"ऻ":{"ha":475,"x_min":-21,"x_max":496,"o":"m 98 0 l 98 748 l -21 748 l -21 908 l 98 908 l 98 1059 l 342 1059 l 342 908 l 496 908 l 496 748 l 342 748 l 342 0 l 98 0 z "},"़":{"ha":0,"x_min":-763,"x_max":-534,"o":"m -647 -310 q -674 -310 -647 -310 q -732 -279 -701 -310 q -763 -208 -763 -248 q -732 -137 -763 -168 q -647 -106 -702 -106 q -563 -137 -593 -106 q -534 -207 -534 -167 q -563 -278 -534 -247 q -647 -310 -593 -310 z "},"ऽ":{"ha":843,"x_min":55,"x_max":734,"o":"m 734 254 q 654 71 734 138 q 443 4 574 4 q 55 117 234 4 l 103 300 q 383 190 269 190 q 473 213 440 190 q 506 275 506 235 q 476 349 506 315 q 344 460 447 382 q 201 593 241 537 q 161 722 161 650 q 226 856 161 805 q 417 908 291 908 l 718 908 l 718 748 l 486 748 q 404 686 405 748 q 430 634 403 661 q 552 538 456 607 q 690 402 647 468 q 734 254 734 336 z "},"ा":{"ha":475,"x_min":-21,"x_max":496,"o":"m 98 0 l 98 748 l -21 748 l -21 908 l 496 908 l 496 748 l 342 748 l 342 0 l 98 0 z "},"ि":{"ha":475,"x_min":-21,"x_max":1184,"o":"m 98 0 l 98 748 l -21 748 l -21 908 l 98 908 l 98 942 q 169 1145 98 1059 q 263 1225 206 1192 q 406 1278 320 1258 q 600 1299 492 1298 q 1184 1184 904 1300 l 1134 1002 q 631 1093 881 1093 q 420 1046 499 1093 q 342 929 342 998 l 342 908 l 496 908 l 496 748 l 342 748 l 342 0 l 98 0 z "},"ी":{"ha":475,"x_min":-440,"x_max":496,"o":"m 98 0 l 98 748 l -21 748 l -21 908 l 74 908 q -21 1035 32 993 q -129 1078 -74 1078 q -187 1055 -166 1078 q -209 997 -209 1032 q -150 878 -209 943 l -392 878 q -440 1055 -440 963 q -376 1209 -440 1142 q -291 1263 -345 1243 q -171 1284 -238 1284 q 120 1186 -9 1284 q 325 908 249 1089 l 496 908 l 496 748 l 342 748 l 342 0 l 98 0 z "},"ु":{"ha":0,"x_min":-756,"x_max":10,"o":"m -271 34 q -67 -39 -143 34 q 10 -225 10 -113 q -70 -406 10 -338 q -280 -473 -149 -473 q -756 -274 -534 -473 l -681 -112 q -330 -293 -489 -293 q -233 -269 -265 -293 q -201 -213 -201 -246 q -222 -163 -201 -181 q -279 -145 -243 -145 q -433 -205 -343 -145 l -521 -42 q -271 34 -415 34 z "},"ू":{"ha":0,"x_min":-586,"x_max":211,"o":"m -91 -443 q -259 -473 -166 -473 q -425 -439 -352 -473 q -542 -345 -499 -406 q -586 -209 -586 -284 q -506 -41 -586 -110 q -291 27 -426 27 q 49 -108 -106 27 q 211 -278 124 -172 l 98 -407 q -105 -217 -24 -268 q -268 -166 -186 -166 q -346 -188 -319 -166 q -373 -241 -373 -210 q -348 -290 -373 -272 q -270 -308 -323 -308 q -145 -280 -216 -308 l -91 -443 z "},"ृ":{"ha":0,"x_min":-550,"x_max":-75,"o":"m -251 -414 q -463 -350 -376 -414 q -550 -180 -550 -287 q -472 -25 -550 -85 q -268 35 -395 35 q -133 28 -207 35 l -133 -107 l -226 -107 q -320 -132 -287 -107 q -352 -192 -352 -158 q -327 -246 -352 -227 q -256 -265 -301 -265 q -100 -230 -190 -265 l -75 -385 q -251 -414 -159 -414 z "},"ॄ":{"ha":0,"x_min":-533,"x_max":-28,"o":"m -208 -569 q -317 -555 -270 -569 q -390 -516 -364 -541 q -444 -400 -444 -468 q -413 -311 -444 -351 q -502 -242 -470 -285 q -533 -144 -533 -198 q -456 -16 -533 -67 q -254 35 -379 35 q -133 24 -183 35 l -133 -96 l -219 -96 q -297 -112 -272 -96 q -322 -154 -322 -128 q -301 -195 -322 -179 q -234 -210 -280 -210 q -110 -191 -188 -210 l -82 -322 q -232 -341 -161 -341 q -261 -389 -261 -362 q -241 -430 -261 -415 q -177 -444 -221 -444 q -53 -416 -132 -444 l -28 -539 q -208 -569 -114 -569 z "},"ॅ":{"ha":0,"x_min":-596,"x_max":81,"o":"m -251 956 q -432 988 -349 956 q -596 1086 -515 1020 l -545 1245 q -404 1158 -473 1187 q -250 1128 -335 1128 q 22 1243 -109 1128 l 81 1087 q -251 956 -49 956 z "},"ॆ":{"ha":0,"x_min":-885,"x_max":-164,"o":"m -164 873 l -378 873 l -378 930 q -456 1006 -378 1006 q -529 993 -475 1006 q -636 981 -584 981 q -773 1015 -714 981 q -885 1117 -832 1049 l -798 1255 q -714 1187 -749 1206 q -644 1168 -679 1168 q -527 1188 -609 1168 q -381 1208 -445 1208 q -222 1142 -280 1208 q -164 962 -164 1076 l -164 873 z "},"े":{"ha":0,"x_min":-720,"x_max":-136,"o":"m -136 873 l -415 873 l -720 1175 l -541 1303 l -136 873 z "},"ै":{"ha":0,"x_min":-942,"x_max":-138,"o":"m -645 873 l -942 1123 l -772 1262 l -362 889 l -520 1274 l -305 1334 l -138 873 l -645 873 z "},"ॉ":{"ha":475,"x_min":-112,"x_max":566,"o":"m 98 0 l 98 748 l -21 748 l -21 908 l 496 908 l 496 748 l 342 748 l 342 0 l 98 0 m 233 956 q 52 988 136 956 q -112 1086 -31 1020 l -60 1245 q 80 1158 11 1187 q 235 1128 150 1128 q 506 1243 376 1128 l 566 1087 q 233 956 435 956 z "},"ॊ":{"ha":475,"x_min":-409,"x_max":496,"o":"m 98 0 l 98 748 l -21 748 l -21 908 l 98 908 l 98 930 q 20 1006 98 1006 q -53 993 1 1006 q -160 981 -108 981 q -297 1015 -238 981 q -409 1117 -356 1049 l -322 1255 q -238 1187 -273 1206 q -168 1168 -203 1168 q -51 1188 -133 1168 q 95 1208 32 1208 q 254 1142 196 1208 q 312 962 312 1076 l 312 908 l 496 908 l 496 748 l 342 748 l 342 0 l 98 0 z "},"ो":{"ha":475,"x_min":-242,"x_max":496,"o":"m 98 0 l 98 748 l -21 748 l -21 908 l 28 908 l -242 1175 l -62 1303 l 310 908 l 496 908 l 496 748 l 342 748 l 342 0 l 98 0 z "},"ौ":{"ha":475,"x_min":-468,"x_max":496,"o":"m 98 0 l 98 748 l -21 748 l -21 873 l -171 873 l -468 1123 l -298 1262 l 91 908 l 104 908 l -46 1274 l 169 1334 l 324 908 l 496 908 l 496 748 l 342 748 l 342 0 l 98 0 z "},"्":{"ha":0,"x_min":-414,"x_max":88,"o":"m -414 -204 l -343 -35 l 88 -219 l 18 -390 l -414 -204 z "},"ॎ":{"ha":475,"x_min":98,"x_max":496,"o":"m 98 0 l 98 908 l 496 908 l 496 748 l 343 748 l 343 0 l 98 0 z "},"ॏ":{"ha":475,"x_min":-503,"x_max":496,"o":"m 98 0 l 98 748 l -21 748 l -21 908 l 4 908 q -34 955 -11 940 q -94 971 -56 971 q -163 961 -113 971 q -261 951 -213 951 q -503 1069 -394 951 l -425 1173 q -266 1100 -343 1100 q -168 1114 -230 1100 q -280 1206 -227 1139 l -206 1317 q -135 1262 -166 1278 q -75 1246 -105 1246 q 23 1262 -46 1246 q 147 1278 93 1278 q 288 1224 234 1278 q 342 1079 342 1170 l 342 908 l 496 908 l 496 748 l 342 748 l 342 0 l 98 0 m 83 1115 q 53 1112 69 1115 q 118 1062 91 1095 q 168 968 144 1028 l 168 1053 q 149 1099 168 1083 q 83 1115 131 1115 z "},"ॐ":{"ha":1461,"x_min":87,"x_max":1442,"o":"m 762 215 q 692 218 720 215 q 593 100 664 145 q 424 55 521 55 q 248 82 327 55 q 87 161 169 109 l 132 337 q 367 249 259 249 q 451 275 422 249 q 481 345 481 301 q 433 422 481 390 q 272 397 362 404 l 256 396 l 216 576 q 434 632 401 591 q 449 681 449 651 q 427 727 449 711 q 366 744 406 744 q 171 684 282 744 l 117 866 q 377 921 237 921 q 590 851 516 921 q 664 662 664 782 q 601 507 664 568 q 691 390 666 457 q 744 433 720 395 q 801 553 768 470 q 1126 807 902 807 q 1263 781 1201 807 q 1362 712 1324 756 q 1442 499 1442 622 q 1407 356 1442 421 q 1306 250 1373 291 q 1149 209 1238 209 q 906 282 1023 209 q 762 215 843 215 m 998 421 q 1099 395 1051 395 q 1187 432 1147 395 q 1227 522 1227 469 q 1207 584 1227 563 q 1154 605 1187 605 q 1087 573 1121 605 q 1027 485 1053 541 q 998 421 1014 455 m 833 891 q 652 923 735 891 q 488 1020 569 954 l 539 1180 q 680 1092 611 1121 q 834 1063 749 1063 q 1106 1178 975 1063 l 1166 1022 q 833 891 1035 891 m 828 1112 q 805 1112 828 1112 q 756 1138 782 1112 q 730 1198 730 1164 q 756 1258 730 1232 q 828 1284 782 1284 q 899 1258 874 1284 q 924 1199 924 1232 q 899 1139 924 1165 q 828 1112 874 1112 z "},"॑":{"ha":0,"x_min":-378,"x_max":-134,"o":"m -378 1246 l -134 1246 l -134 970 l -378 970 l -378 1246 z "},"॒":{"ha":0,"x_min":-798,"x_max":-112,"o":"m -112 -218 l -798 -218 l -798 -84 l -112 -84 l -112 -218 z "},"॓":{"ha":0,"x_min":-543,"x_max":-147,"o":"m -261 1265 l -147 973 l -360 973 l -543 1265 l -261 1265 z "},"॔":{"ha":0,"x_min":-350,"x_max":45,"o":"m -350 973 l -236 1265 l 45 1265 l -137 973 l -350 973 z "},"ॕ":{"ha":0,"x_min":-812,"x_max":-126,"o":"m -126 965 l -812 965 l -812 1100 l -126 1100 l -126 965 m -461 1133 q -642 1161 -559 1133 q -806 1248 -725 1189 l -755 1389 q -614 1311 -683 1337 q -460 1286 -545 1286 q -188 1387 -318 1286 l -128 1248 q -461 1133 -259 1133 z "},"ॖ":{"ha":0,"x_min":-624,"x_max":113,"o":"m -249 -307 q -447 -275 -356 -307 q -624 -178 -537 -244 l -576 -26 q -254 -136 -429 -136 q 55 -27 -79 -136 l 113 -177 q -249 -307 -29 -307 z "},"ॗ":{"ha":0,"x_min":-639,"x_max":140,"o":"m 140 -399 q -235 -510 -11 -510 q -639 -399 -460 -510 l -588 -269 q -247 -363 -432 -363 q 78 -270 -62 -363 l 140 -399 m -249 -279 q -447 -250 -356 -279 q -624 -162 -537 -222 l -576 -25 q -254 -124 -429 -124 q 55 -27 -79 -124 l 113 -161 q -249 -279 -29 -279 z "},"क़":{"ha":1237,"x_min":-21,"x_max":1258,"o":"m 99 -119 q 71 -119 99 -119 q 14 -88 44 -119 q -17 -18 -17 -58 q 13 53 -17 22 q 98 84 44 84 q 183 54 153 84 q 212 -17 212 23 q 183 -88 212 -57 q 99 -119 153 -119 m 738 0 l 494 0 l 494 145 q 350 119 434 119 q 193 161 267 119 q 77 272 119 204 q 36 418 36 341 q 105 585 36 520 q 302 652 173 650 q 494 619 407 654 l 494 748 l -21 748 l -21 908 l 1258 908 l 1258 748 l 738 748 l 738 592 q 820 595 773 595 q 1066 511 968 595 q 1163 307 1163 427 q 1075 56 1163 174 l 860 128 q 918 228 899 183 q 936 311 936 272 q 913 372 936 350 q 852 395 890 395 q 738 340 789 395 l 738 0 m 241 386 q 241 367 241 386 q 266 325 241 348 q 334 303 292 303 q 418 326 376 303 q 494 393 461 349 l 494 452 q 368 477 433 477 q 272 450 303 477 q 241 386 241 423 z "},"ख़":{"ha":1390,"x_min":-21,"x_max":1411,"o":"m 125 -119 q 97 -119 125 -119 q 40 -88 70 -119 q 9 -18 9 -58 q 39 53 9 22 q 124 84 70 84 q 209 54 179 84 q 238 -17 238 23 q 209 -88 238 -57 q 125 -119 179 -119 m 850 371 q 1013 443 947 371 l 1013 496 q 866 523 947 523 q 797 500 823 523 q 772 445 772 477 q 794 393 772 414 q 850 371 816 371 m 826 -26 q 474 31 638 -26 q 207 190 310 88 q 44 409 91 306 q 20 498 20 457 q 49 570 20 539 q 118 601 78 601 q 187 586 159 601 q 246 534 216 570 q 298 667 298 575 l 298 748 l -21 748 l -21 908 l 1411 908 l 1411 748 l 1257 748 l 1257 0 l 1069 0 q 826 -26 951 -26 m 820 139 q 1013 166 920 139 l 1013 227 q 867 205 951 205 q 667 285 749 205 q 585 475 585 364 q 645 624 585 567 q 820 682 706 682 q 1013 650 935 682 l 1013 748 l 542 748 l 542 655 q 449 383 542 480 q 357 312 411 344 l 362 308 q 820 139 531 139 z "},"ग़":{"ha":1051,"x_min":-21,"x_max":1072,"o":"m 284 -119 q 257 -119 284 -119 q 199 -88 230 -119 q 169 -18 169 -58 q 199 53 169 22 q 284 84 229 84 q 368 54 338 84 q 397 -17 397 23 q 368 -88 397 -57 q 284 -119 338 -119 m 674 0 l 674 748 l 451 748 l 451 292 q 356 180 451 180 q 213 222 286 180 q 93 322 139 264 q 48 425 48 379 q 70 481 48 460 q 137 502 92 502 l 206 502 l 206 748 l -21 748 l -21 908 l 1072 908 l 1072 748 l 918 748 l 918 0 l 674 0 z "},"ज़":{"ha":1219,"x_min":-52,"x_max":1240,"o":"m 64 -108 q 36 -108 64 -108 q -21 -77 9 -108 q -52 -6 -52 -46 q -22 65 -52 34 q 63 95 8 95 q 147 65 118 95 q 177 -6 177 34 q 147 -77 177 -46 q 64 -108 118 -108 m 843 0 l 843 438 l 642 438 q 696 265 696 364 q 621 96 696 166 q 427 25 546 25 q 198 92 308 25 q 1 283 89 159 l 114 446 q 270 285 199 333 q 392 238 341 238 q 451 259 428 238 q 473 314 473 281 q 426 409 473 364 q 296 470 378 455 l 296 638 l 843 638 l 843 748 l -21 748 l -21 908 l 1240 908 l 1240 748 l 1087 748 l 1087 0 l 843 0 z "},"ड़":{"ha":885,"x_min":-21,"x_max":906,"o":"m 427 -298 q 399 -298 427 -298 q 342 -267 372 -298 q 311 -196 311 -236 q 341 -125 311 -156 q 426 -94 371 -94 q 510 -125 481 -94 q 540 -195 540 -155 q 510 -266 540 -235 q 427 -298 481 -298 m 477 -24 q 67 66 279 -24 l 109 241 q 435 152 288 152 q 581 220 581 152 q 562 257 581 244 q 503 270 542 270 q 330 230 416 270 l 310 230 q 130 349 185 285 q 74 492 74 412 q 126 609 74 560 q 199 650 152 635 q 306 664 245 664 l 485 664 l 485 748 l -21 748 l -21 908 l 906 908 l 906 748 l 730 748 l 730 508 l 374 508 q 319 493 336 508 q 301 456 301 477 q 317 419 301 435 q 512 445 395 445 q 734 381 657 445 q 812 218 812 316 q 739 47 812 112 q 634 -5 701 13 q 477 -24 567 -24 z "},"ढ़":{"ha":917,"x_min":-21,"x_max":938,"o":"m 493 -283 q 465 -283 493 -283 q 408 -252 438 -283 q 377 -181 377 -221 q 407 -110 377 -141 q 492 -79 437 -79 q 576 -110 547 -79 q 606 -180 606 -140 q 576 -252 606 -220 q 493 -283 547 -283 m 543 174 q 549 128 543 152 q 666 157 622 132 q 709 214 709 181 q 694 248 709 235 q 643 261 678 261 q 575 234 607 261 q 543 174 543 208 m 555 -10 q 347 21 444 -10 q 186 101 251 51 q 84 216 121 152 q 47 345 47 281 q 66 459 47 409 q 127 550 86 508 q 240 614 168 591 q 411 638 312 638 l 520 638 l 520 748 l -21 748 l -21 908 l 938 908 l 938 748 l 765 748 l 765 468 l 487 468 q 319 422 370 468 q 268 302 268 376 q 344 176 268 228 q 343 197 343 183 q 415 343 343 284 q 615 403 487 403 q 822 345 744 403 q 900 206 900 286 q 815 51 900 111 q 555 -10 730 -10 z "},"फ़":{"ha":1286,"x_min":-21,"x_max":1307,"o":"m 188 -58 q 161 -58 188 -58 q 103 -27 133 -58 q 72 44 72 4 q 103 115 72 84 q 187 146 133 146 q 272 116 242 146 q 301 45 301 85 q 272 -26 301 5 q 188 -58 242 -58 m 786 0 l 542 0 l 542 216 q 441 207 501 207 q 181 298 277 207 q 86 553 86 390 l 86 748 l -21 748 l -21 908 l 1307 908 l 1307 748 l 786 748 l 786 576 q 884 581 826 581 q 1129 497 1032 581 q 1227 293 1227 413 q 1139 42 1227 160 l 924 114 q 982 213 963 169 q 1000 297 1000 258 q 977 358 1000 336 q 916 381 954 381 q 786 308 845 381 l 786 0 m 411 401 q 542 455 483 401 l 542 748 l 330 748 l 330 497 q 351 426 330 450 q 411 401 372 401 z "},"य़":{"ha":998,"x_min":-21,"x_max":1020,"o":"m 147 -60 q 120 -60 147 -60 q 62 -29 93 -60 q 32 42 32 2 q 62 113 32 82 q 147 144 92 144 q 231 113 202 144 q 261 43 261 83 q 231 -28 261 3 q 147 -60 202 -60 m 295 383 q 416 344 349 344 q 621 438 549 344 l 621 748 l 469 748 l 469 655 q 428 487 469 552 q 295 383 387 421 m 621 0 l 621 159 q 505 144 570 144 q 211 230 343 144 q 4 461 79 315 l 8 473 q 174 556 124 511 q 225 671 225 602 l 225 748 l -21 748 l -21 908 l 1020 908 l 1020 748 l 866 748 l 866 0 l 621 0 z "},"ॠ":{"ha":1288,"x_min":-21,"x_max":1310,"o":"m 1132 -62 q 935 -7 1010 -62 q 859 135 859 48 q 984 294 859 239 l 965 321 q 842 305 899 305 q 747 312 785 305 l 747 0 l 503 0 l 503 190 l 202 44 l 96 228 l 453 392 q 267 458 351 458 q 80 398 183 458 l 22 607 q 123 644 67 630 q 229 659 179 659 q 475 581 352 659 l 503 565 l 503 748 l -21 748 l -21 908 l 1310 908 l 1310 748 l 747 748 l 747 505 q 804 496 775 496 q 865 501 833 496 q 853 560 853 529 q 882 613 853 591 q 965 635 911 635 q 1121 600 1061 635 q 1180 510 1180 566 q 1129 404 1180 454 l 1222 278 l 1201 216 q 1107 178 1138 202 q 1076 128 1076 154 q 1141 79 1076 79 q 1253 98 1190 79 l 1284 -42 q 1132 -62 1210 -62 z "},"ॡ":{"ha":1206,"x_min":-21,"x_max":1268,"o":"m 1096 -321 q 916 -270 980 -321 q 852 -151 852 -220 q 882 -64 852 -103 q 794 5 825 -38 q 763 104 763 48 q 806 204 763 161 q 921 261 848 248 q 940 342 940 307 q 918 399 940 378 q 863 420 897 420 q 758 355 805 420 q 687 166 712 290 l 460 228 q 517 411 479 331 q 417 438 474 438 q 324 400 360 438 q 287 308 287 361 q 319 203 287 256 q 430 74 350 150 l 255 -22 q 55 369 55 159 q 75 474 55 424 q 133 561 95 523 q 228 622 170 600 q 357 645 286 645 q 635 562 508 645 q 829 627 718 626 l 829 748 l -21 748 l -21 908 l 1227 908 l 1227 748 l 1074 748 l 1074 541 q 1165 319 1165 455 q 1150 225 1165 279 q 1115 139 1135 170 l 1068 139 q 993 122 1017 139 q 968 83 968 105 q 988 47 968 61 q 1046 34 1008 34 q 1186 56 1114 34 l 1213 -74 q 1066 -95 1129 -93 q 1042 -139 1042 -114 q 1060 -180 1042 -165 q 1115 -195 1079 -195 q 1243 -169 1177 -195 l 1268 -291 q 1096 -321 1191 -321 z "},"ॢ":{"ha":0,"x_min":-604,"x_max":67,"o":"m -41 -409 q -159 -375 -114 -409 q -204 -286 -204 -341 q -177 -217 -204 -247 q -100 -176 -150 -187 q -86 -128 -86 -150 q -99 -94 -86 -107 q -135 -81 -112 -81 q -193 -118 -167 -81 q -232 -218 -218 -154 l -365 -174 q -343 -97 -357 -131 q -395 -80 -369 -80 q -437 -98 -421 -80 q -454 -141 -454 -115 q -435 -194 -454 -168 q -369 -257 -416 -220 l -471 -326 q -604 -112 -604 -230 q -556 5 -604 -41 q -427 51 -509 51 q -277 2 -344 51 q -138 49 -222 49 q -3 1 -55 49 q 49 -118 49 -46 q 18 -245 49 -190 l 2 -245 q -58 -258 -37 -245 q -79 -289 -79 -272 q -31 -324 -79 -321 q 55 -309 6 -326 l 67 -390 q -41 -409 15 -409 z "},"ॣ":{"ha":0,"x_min":-604,"x_max":98,"o":"m 98 -512 q -12 -532 49 -532 q -109 -502 -73 -532 q -145 -429 -145 -473 q -130 -379 -145 -402 q -182 -337 -164 -363 q -199 -276 -199 -310 q -174 -214 -199 -242 q -100 -175 -148 -187 q -86 -128 -86 -149 q -99 -94 -86 -107 q -135 -81 -112 -81 q -193 -118 -167 -81 q -232 -218 -218 -154 l -365 -174 q -343 -97 -356 -129 q -395 -80 -369 -80 q -437 -98 -421 -80 q -454 -141 -454 -115 q -435 -194 -454 -168 q -369 -257 -416 -220 l -471 -326 q -604 -112 -604 -230 q -556 5 -604 -41 q -427 51 -509 51 q -277 2 -344 51 q -139 49 -223 49 q -4 2 -56 49 q 49 -119 49 -45 q 18 -245 49 -192 l 3 -245 q -54 -257 -34 -245 q -73 -285 -73 -270 q -58 -309 -73 -301 q -13 -317 -42 -317 q 54 -304 16 -317 l 68 -382 q -24 -400 24 -399 q -32 -423 -32 -410 q -19 -446 -32 -437 q 20 -455 -6 -455 q 86 -441 46 -455 l 98 -512 z "},"।":{"ha":501,"x_min":207,"x_max":435,"o":"m 435 -98 l 207 -98 l 207 971 l 435 971 l 435 -98 z "},"॥":{"ha":873,"x_min":207,"x_max":807,"o":"m 807 -98 l 579 -98 l 579 971 l 807 971 l 807 -98 m 435 -98 l 207 -98 l 207 971 l 435 971 l 435 -98 z "},"०":{"ha":873,"x_min":55,"x_max":819,"o":"m 446 607 q 412 607 446 607 q 335 556 378 607 q 291 440 291 506 q 330 334 291 374 q 433 295 369 295 q 543 342 497 295 q 589 456 589 390 q 551 564 589 522 q 446 607 513 607 m 162 202 q 137 226 162 202 q 83 319 112 251 q 55 457 55 386 q 81 590 55 529 q 154 699 107 652 q 273 775 202 747 q 433 803 345 803 q 593 775 520 803 q 716 698 667 747 q 792 581 765 648 q 819 441 819 514 q 796 306 819 367 q 726 197 772 244 q 609 121 681 149 q 450 93 538 93 q 287 122 362 93 q 162 202 213 152 z "},"१":{"ha":730,"x_min":48,"x_max":680,"o":"m 365 729 q 345 729 365 729 q 299 704 325 729 q 273 640 273 678 q 307 569 273 602 q 405 517 341 537 q 460 635 460 582 q 433 701 460 674 q 365 729 406 729 m 374 -84 q 395 -16 395 -50 q 350 52 395 18 l 128 225 l 128 246 l 268 381 q 101 502 153 429 q 48 664 48 576 q 124 841 48 767 q 222 899 161 878 q 359 921 283 921 q 497 896 435 921 q 599 831 560 871 q 659 740 638 790 q 680 629 680 691 q 656 513 680 567 q 580 403 632 459 l 431 242 l 548 144 q 640 -13 640 67 q 592 -145 640 -74 l 374 -84 z "},"२":{"ha":746,"x_min":48,"x_max":698,"o":"m 243 225 q 106 255 147 225 q 64 340 64 284 q 125 481 64 413 q 260 550 187 550 q 321 534 295 550 q 371 480 346 517 q 458 614 458 533 q 419 695 458 664 q 319 726 381 726 q 113 683 216 726 l 48 883 q 328 922 173 922 q 602 837 506 922 q 698 614 698 751 q 638 423 698 510 q 478 285 577 337 l 671 -29 l 475 -119 l 270 226 q 243 225 261 225 z "},"३":{"ha":737,"x_min":43,"x_max":680,"o":"m 69 115 q 131 233 69 180 q 268 286 192 286 q 384 203 344 286 q 437 240 418 216 q 456 293 456 264 q 428 363 456 336 q 343 390 400 390 q 180 358 264 390 l 126 554 q 346 591 239 591 q 388 589 368 591 q 403 653 403 618 q 378 710 403 688 q 308 732 353 732 q 115 678 218 732 l 43 866 q 171 908 108 895 q 319 921 235 921 q 547 851 469 921 q 624 667 624 780 q 581 509 624 581 q 654 407 628 466 q 680 284 680 348 q 624 118 680 187 q 462 20 569 48 l 523 -103 l 341 -176 l 253 6 q 115 42 161 14 q 69 115 69 71 z "},"४":{"ha":853,"x_min":-4,"x_max":874,"o":"m 354 256 q 354 239 354 256 q 376 203 354 223 q 437 183 397 183 q 504 209 477 183 q 531 277 531 234 q 448 412 531 333 q 373 323 392 357 q 354 256 354 289 m 451 13 q 221 90 312 13 q 130 278 130 167 q 162 409 130 343 q 278 558 195 475 l -4 794 l 150 940 l 433 699 l 705 944 l 874 796 l 601 552 q 723 400 688 468 q 758 259 758 331 q 737 168 758 212 q 678 90 716 124 q 581 34 640 55 q 451 13 522 13 z "},"५":{"ha":892,"x_min":62,"x_max":922,"o":"m 580 161 q 438 144 514 144 q 291 171 362 144 q 169 245 219 199 q 91 355 119 292 q 62 487 62 418 q 126 728 62 612 q 313 932 189 843 l 532 819 q 297 470 297 648 q 333 370 297 408 q 426 333 369 333 q 482 341 456 333 q 456 434 456 390 q 492 508 456 477 q 602 539 528 539 q 771 497 706 539 q 836 397 836 455 q 768 261 836 327 l 922 -51 l 724 -133 l 580 161 z "},"६":{"ha":803,"x_min":55,"x_max":836,"o":"m 520 6 q 239 90 343 6 q 135 308 135 175 q 177 442 135 381 q 87 546 118 487 q 55 672 55 605 q 119 820 55 759 q 331 913 189 887 q 505 926 409 926 l 553 731 q 343 695 403 731 q 291 620 291 664 q 321 558 291 584 q 576 613 427 606 l 638 412 q 510 399 565 412 q 426 364 456 385 q 365 269 365 321 q 397 209 365 232 q 484 185 429 185 q 477 232 477 208 q 508 292 477 269 q 602 316 539 316 q 761 277 695 316 q 826 182 826 239 q 759 67 826 116 l 836 -91 l 657 -163 l 575 8 q 520 6 549 6 z "},"७":{"ha":935,"x_min":57,"x_max":891,"o":"m 543 481 q 664 355 543 395 q 678 442 678 397 q 654 516 678 486 q 602 546 631 546 q 559 528 574 546 q 543 481 543 510 m 498 16 q 328 50 407 16 q 187 147 248 84 q 92 306 127 210 q 57 510 57 402 q 77 720 57 618 q 130 906 96 823 l 349 843 q 269 458 269 655 q 327 275 269 342 q 482 207 385 207 q 563 228 525 207 q 331 517 331 325 q 393 678 331 614 q 569 741 454 741 q 729 700 656 741 q 847 582 803 659 q 891 401 891 506 q 845 209 891 297 q 710 68 800 120 q 498 16 619 16 z "},"८":{"ha":789,"x_min":53,"x_max":808,"o":"m 365 440 q 315 369 329 399 q 301 308 301 340 q 331 250 301 275 q 401 225 360 225 q 521 254 458 225 q 679 356 584 284 l 808 143 q 627 45 711 73 q 437 16 543 16 q 160 109 268 16 q 53 340 53 202 q 77 466 53 406 q 157 591 100 526 l 451 924 l 652 766 l 365 440 z "},"९":{"ha":749,"x_min":42,"x_max":738,"o":"m 338 491 q 434 548 402 512 q 466 626 466 584 q 438 699 466 668 q 366 729 410 729 q 295 698 322 729 q 268 628 268 668 q 284 557 268 588 q 337 492 301 526 l 338 491 m 459 -59 q 487 18 487 -11 q 477 68 487 48 q 442 112 468 88 l 204 337 q 80 490 118 418 q 42 652 42 561 q 62 750 42 702 q 120 836 83 798 q 218 898 158 875 q 352 921 277 921 q 492 896 428 921 q 598 829 556 871 q 661 732 639 786 q 684 616 684 677 q 632 455 684 527 q 489 349 580 383 l 650 199 q 715 117 692 161 q 738 34 738 73 q 699 -109 738 -37 l 459 -59 z "},"॰":{"ha":740,"x_min":99,"x_max":650,"o":"m 375 455 q 395 455 375 455 q 442 481 415 455 q 469 555 469 508 q 442 631 469 603 q 375 658 414 658 q 308 631 336 658 q 279 555 279 603 q 307 481 279 507 q 375 455 335 455 m 376 811 q 437 811 376 811 q 575 737 499 811 q 650 557 650 664 q 575 376 650 451 q 376 302 499 302 q 176 376 253 302 q 99 556 99 450 q 176 737 99 663 q 376 811 252 811 z "},"ॱ":{"ha":588,"x_min":180,"x_max":409,"o":"m 295 736 q 268 736 295 736 q 210 767 241 736 q 180 838 180 798 q 210 909 180 878 q 295 940 240 940 q 379 909 350 940 q 409 838 409 878 q 379 767 409 798 q 295 736 350 736 z "},"ॲ":{"ha":1203,"x_min":45,"x_max":1282,"o":"m 826 0 l 826 300 q 737 292 775 292 q 664 294 698 292 q 584 124 663 192 q 377 55 505 55 q 206 82 285 55 q 45 161 126 109 l 90 337 q 324 249 217 249 q 409 275 380 249 q 439 345 439 301 q 391 422 439 390 q 230 397 320 404 l 213 396 l 174 576 q 392 632 359 591 q 407 681 407 651 q 385 727 407 711 q 324 744 364 744 q 128 684 240 744 l 75 866 q 335 921 195 921 q 548 851 474 921 q 622 662 622 782 q 559 507 622 568 q 600 469 582 489 q 659 466 625 466 q 826 508 753 466 l 826 748 l 708 748 l 708 908 l 1224 908 l 1224 748 l 1070 748 l 1070 0 l 826 0 m 949 956 q 769 988 852 956 q 605 1086 685 1020 l 656 1245 q 797 1158 727 1187 q 951 1128 866 1128 q 1222 1243 1092 1128 l 1282 1087 q 949 956 1152 956 z "},"ॳ":{"ha":1203,"x_min":45,"x_max":1224,"o":"m 826 0 l 826 300 q 737 292 775 292 q 664 294 698 292 q 584 124 663 192 q 377 55 505 55 q 206 82 285 55 q 45 161 126 109 l 90 337 q 324 249 217 249 q 409 275 380 249 q 439 345 439 301 q 391 422 439 390 q 230 397 320 404 l 213 396 l 174 576 q 392 632 359 591 q 407 681 407 651 q 385 727 407 711 q 324 744 364 744 q 128 684 240 744 l 75 866 q 335 921 195 921 q 548 851 474 921 q 622 662 622 782 q 559 507 622 568 q 600 469 582 489 q 659 466 625 466 q 826 508 753 466 l 826 748 l 708 748 l 708 908 l 826 908 l 826 1059 l 1070 1059 l 1070 908 l 1224 908 l 1224 748 l 1070 748 l 1070 0 l 826 0 z "},"ॴ":{"ha":1668,"x_min":45,"x_max":1689,"o":"m 826 0 l 826 300 q 737 292 775 292 q 664 294 698 292 q 584 124 663 192 q 377 55 505 55 q 206 82 285 55 q 45 161 126 109 l 90 337 q 324 249 217 249 q 409 275 380 249 q 439 345 439 301 q 391 422 439 390 q 230 397 320 404 l 213 396 l 174 576 q 392 632 359 591 q 407 681 407 651 q 385 727 407 711 q 324 744 364 744 q 128 684 240 744 l 75 866 q 335 921 195 921 q 548 851 474 921 q 622 662 622 782 q 559 507 622 568 q 600 469 582 489 q 659 466 625 466 q 826 508 753 466 l 826 748 l 708 748 l 708 908 l 1291 908 l 1291 1059 l 1535 1059 l 1535 908 l 1689 908 l 1689 748 l 1536 748 l 1536 0 l 1291 0 l 1291 748 l 1070 748 l 1070 0 l 826 0 z "},"ॵ":{"ha":1668,"x_min":45,"x_max":1689,"o":"m 826 0 l 826 300 q 737 292 775 292 q 664 294 698 292 q 584 124 663 192 q 377 55 505 55 q 206 82 285 55 q 45 161 126 109 l 90 337 q 324 249 217 249 q 409 275 380 249 q 439 345 439 301 q 391 422 439 390 q 230 397 320 404 l 213 396 l 174 576 q 392 632 359 591 q 407 681 407 651 q 385 727 407 711 q 324 744 364 744 q 128 684 240 744 l 75 866 q 335 921 195 921 q 548 851 474 921 q 622 662 622 782 q 559 507 622 568 q 600 469 582 489 q 659 466 625 466 q 826 508 753 466 l 826 748 l 708 748 l 708 908 l 1197 908 q 1160 955 1182 940 q 1100 971 1138 971 q 1030 961 1081 971 q 932 951 980 951 q 802 982 860 951 q 690 1069 744 1012 l 768 1173 q 927 1100 851 1100 q 1025 1114 965 1100 q 914 1206 967 1139 l 987 1317 q 1058 1262 1028 1278 q 1118 1246 1088 1246 q 1216 1262 1147 1246 q 1340 1278 1286 1278 q 1481 1224 1427 1278 q 1536 1079 1536 1170 l 1536 908 l 1689 908 l 1689 748 l 1536 748 l 1536 0 l 1291 0 l 1291 748 l 1070 748 l 1070 0 l 826 0 m 1276 1115 q 1246 1112 1263 1115 q 1311 1062 1284 1095 q 1361 968 1337 1028 l 1361 1053 q 1342 1099 1361 1083 q 1276 1115 1324 1115 z "},"ॶ":{"ha":1203,"x_min":45,"x_max":1224,"o":"m 583 -307 q 385 -275 476 -307 q 208 -178 295 -244 l 256 -26 q 578 -136 403 -136 q 887 -27 753 -136 l 945 -177 q 583 -307 803 -307 m 826 0 l 826 300 q 737 292 775 292 q 664 294 698 292 q 584 124 663 192 q 377 55 505 55 q 206 82 285 55 q 45 161 126 109 l 90 337 q 324 249 217 249 q 409 275 380 249 q 439 345 439 301 q 391 422 439 390 q 230 397 320 404 l 213 396 l 174 576 q 392 632 359 591 q 407 681 407 651 q 385 727 407 711 q 324 744 364 744 q 128 684 240 744 l 75 866 q 335 921 195 921 q 548 851 474 921 q 622 662 622 782 q 559 507 622 568 q 600 469 582 489 q 659 466 625 466 q 826 508 753 466 l 826 748 l 708 748 l 708 908 l 1224 908 l 1224 748 l 1070 748 l 1070 0 l 826 0 z "},"ॷ":{"ha":1203,"x_min":45,"x_max":1224,"o":"m 972 -399 q 597 -510 822 -510 q 193 -399 372 -510 l 244 -269 q 585 -363 400 -363 q 910 -270 770 -363 l 972 -399 m 583 -279 q 385 -250 476 -279 q 208 -162 295 -222 l 256 -25 q 578 -124 403 -124 q 887 -27 753 -124 l 945 -161 q 583 -279 803 -279 m 826 0 l 826 300 q 737 292 775 292 q 664 294 698 292 q 584 124 663 192 q 377 55 505 55 q 206 82 285 55 q 45 161 126 109 l 90 337 q 324 249 217 249 q 409 275 380 249 q 439 345 439 301 q 391 422 439 390 q 230 397 320 404 l 213 396 l 174 576 q 392 632 359 591 q 407 681 407 651 q 385 727 407 711 q 324 744 364 744 q 128 684 240 744 l 75 866 q 335 921 195 921 q 548 851 474 921 q 622 662 622 782 q 559 507 622 568 q 600 469 582 489 q 659 466 625 466 q 826 508 753 466 l 826 748 l 708 748 l 708 908 l 1224 908 l 1224 748 l 1070 748 l 1070 0 l 826 0 z "},"ॸ":{"ha":919,"x_min":-21,"x_max":940,"o":"m 631 303 q 611 353 631 334 q 558 371 591 371 q 395 298 477 371 l 395 233 q 373 160 395 186 q 308 134 351 134 q 202 164 265 134 q 88 245 140 194 q 37 315 55 278 q 18 383 18 352 q 39 437 18 415 q 107 474 60 459 l 151 487 l 151 748 l -21 748 l -21 908 l 940 908 l 940 748 l 395 748 l 395 556 q 523 568 451 568 q 758 490 667 568 q 849 288 849 411 q 820 149 849 216 q 751 37 792 81 l 545 112 q 631 303 631 231 z "},"ॹ":{"ha":1219,"x_min":-21,"x_max":1240,"o":"m 356 -260 q 332 -260 356 -260 q 281 -232 308 -260 q 253 -170 253 -205 q 281 -107 253 -134 q 356 -80 308 -80 q 430 -107 404 -80 q 456 -169 456 -134 q 430 -232 456 -204 q 356 -260 404 -260 m 593 -186 q 569 -186 593 -186 q 518 -159 546 -186 q 491 -96 491 -131 q 518 -33 491 -60 q 593 -6 545 -6 q 668 -33 642 -6 q 694 -95 694 -60 q 667 -158 694 -131 q 593 -186 641 -186 m 135 -165 q 111 -165 135 -165 q 60 -138 87 -165 q 32 -75 32 -110 q 59 -12 32 -39 q 135 15 86 15 q 209 -12 183 15 q 235 -74 235 -39 q 209 -137 235 -110 q 135 -165 183 -165 m 843 0 l 843 438 l 642 438 q 696 265 696 364 q 621 96 696 166 q 427 25 546 25 q 198 92 308 25 q 1 283 89 159 l 114 446 q 270 285 199 333 q 392 238 341 238 q 451 259 428 238 q 473 314 473 281 q 426 409 473 364 q 296 470 378 455 l 296 638 l 843 638 l 843 748 l -21 748 l -21 908 l 1240 908 l 1240 748 l 1087 748 l 1087 0 l 843 0 z "},"ॺ":{"ha":998,"x_min":-21,"x_max":1020,"o":"m 293 385 q 433 338 355 338 q 565 372 510 338 l 440 539 q 293 385 407 437 m 621 748 l 456 748 l 456 738 l 621 512 l 621 748 m 621 0 l 621 153 q 501 133 575 133 q 207 220 342 133 q -4 454 72 306 l 8 473 q 174 556 124 511 q 225 671 225 602 l 225 748 l -21 748 l -21 908 l 1020 908 l 1020 748 l 866 748 l 866 0 l 621 0 z "},"ॻ":{"ha":1051,"x_min":-21,"x_max":1072,"o":"m 674 0 l 674 748 l 451 748 l 451 292 q 356 180 451 180 q 213 222 286 180 q 93 322 139 264 q 48 425 48 379 q 70 481 48 460 q 137 502 92 502 l 206 502 l 206 748 l -21 748 l -21 908 l 1072 908 l 1072 748 l 918 748 l 918 -140 l 159 -140 l 159 0 l 674 0 z "},"ॼ":{"ha":1219,"x_min":-21,"x_max":1240,"o":"m 843 0 l 843 438 l 642 438 q 696 265 696 364 q 621 96 696 166 q 427 25 546 25 q 198 92 308 25 q 1 283 89 159 l 114 446 q 270 285 199 333 q 392 238 341 238 q 451 259 428 238 q 473 314 473 281 q 426 409 473 364 q 296 470 378 455 l 296 638 l 843 638 l 843 748 l -21 748 l -21 908 l 1240 908 l 1240 748 l 1087 748 l 1087 -140 l 72 -140 l 72 0 l 843 0 z "},"ॽ":{"ha":789,"x_min":116,"x_max":696,"o":"m 215 0 l 215 486 l 223 487 q 415 544 354 496 q 477 646 477 591 q 450 711 477 687 q 375 736 423 736 q 170 676 294 736 l 116 859 q 385 914 242 914 q 613 832 529 914 q 696 624 696 751 q 625 443 696 521 q 459 341 554 365 l 459 0 l 215 0 z "},"ॾ":{"ha":885,"x_min":-21,"x_max":906,"o":"m 789 -57 l 789 -198 l 79 -198 l 79 -57 l 789 -57 m 477 -24 q 67 66 279 -24 l 109 241 q 435 152 288 152 q 581 220 581 152 q 562 257 581 244 q 503 270 542 270 q 330 230 416 270 l 310 230 q 130 349 185 285 q 74 492 74 412 q 126 609 74 560 q 199 650 152 635 q 306 664 245 664 l 485 664 l 485 748 l -21 748 l -21 908 l 906 908 l 906 748 l 730 748 l 730 508 l 374 508 q 319 493 336 508 q 301 456 301 477 q 317 419 301 435 q 512 445 395 445 q 734 381 657 445 q 812 218 812 316 q 739 47 812 112 q 634 -5 701 13 q 477 -24 567 -24 z "},"ॿ":{"ha":917,"x_min":-21,"x_max":938,"o":"m 369 285 q 422 290 398 285 l 279 454 q 260 387 260 430 q 289 315 260 344 q 369 285 317 285 m 529 345 q 540 355 536 350 l 540 475 q 397 498 466 498 l 394 498 l 529 345 m 540 0 l 540 126 q 402 103 481 103 q 253 130 322 103 q 139 204 185 158 q 67 309 93 250 q 41 432 41 369 q 123 604 41 536 q 334 671 204 671 q 540 645 448 671 l 540 748 l -21 748 l -21 908 l 938 908 l 938 748 l 784 748 l 784 -140 l 113 -140 l 113 0 l 540 0 z "},"​":{"ha":0,"x_min":0,"x_max":0,"o":""},"‌":{"ha":0,"x_min":-14,"x_max":14,"o":"m 14 -250 l -14 -250 l -14 1145 l 14 1145 l 14 -250 z "},"‍":{"ha":0,"x_min":-187,"x_max":187,"o":"m 14 -249 l -14 -249 l -14 918 l -166 770 l -187 791 l -20 952 l -185 1113 l -165 1133 l 0 973 l 165 1133 l 187 1112 l 21 951 l 187 791 l 165 771 l 14 918 l 14 -249 z "},"–":{"ha":694,"x_min":70,"x_max":624,"o":"m 624 318 l 70 318 l 70 492 l 624 492 l 624 318 z "},"—":{"ha":1338,"x_min":70,"x_max":1268,"o":"m 1268 318 l 70 318 l 70 492 l 1268 492 l 1268 318 z "},"―":{"ha":1294,"x_min":48,"x_max":1246,"o":"m 1246 262 l 48 262 l 48 436 l 1246 436 l 1246 262 z "},"‘":{"ha":484,"x_min":91,"x_max":378,"o":"m 317 554 l 100 554 l 91 568 q 203 923 154 815 l 378 923 q 317 554 337 730 z "},"’":{"ha":470,"x_min":91,"x_max":379,"o":"m 153 923 l 369 923 l 379 909 q 267 554 322 680 l 91 554 q 153 923 133 752 z "},"“":{"ha":806,"x_min":91,"x_max":701,"o":"m 639 554 l 423 554 l 414 568 q 525 923 477 815 l 701 923 q 639 554 659 730 m 317 554 l 100 554 l 91 568 q 203 923 154 815 l 378 923 q 317 554 337 730 z "},"”":{"ha":792,"x_min":91,"x_max":701,"o":"m 153 923 l 369 923 l 379 909 q 267 554 322 680 l 91 554 q 153 923 133 752 m 475 923 l 692 923 l 701 909 q 589 554 642 675 l 414 554 q 475 923 456 752 z "},"•":{"ha":508,"x_min":47,"x_max":461,"o":"m 461 473 q 461 418 461 473 q 406 304 461 364 q 253 244 351 244 q 101 304 154 244 q 47 473 47 363 q 100 641 47 583 q 253 700 154 700 q 407 640 352 700 q 461 473 461 581 z "},"…":{"ha":1122,"x_min":54,"x_max":1067,"o":"m 319 105 q 319 77 319 105 q 284 16 319 48 q 187 -16 249 -16 q 90 16 126 -16 q 54 106 54 48 q 89 195 54 164 q 187 226 124 226 q 285 195 251 226 q 319 105 319 163 m 692 105 q 692 77 692 105 q 658 16 692 48 q 562 -16 624 -16 q 464 16 500 -16 q 428 106 428 48 q 463 195 428 164 q 562 226 498 226 q 659 195 626 226 q 692 105 692 163 m 1067 105 q 1067 77 1067 105 q 1032 16 1067 48 q 936 -16 998 -16 q 838 16 874 -16 q 803 106 803 48 q 837 195 803 164 q 936 226 872 226 q 1033 195 1000 226 q 1067 105 1067 163 z "},"₹":{"ha":896,"x_min":91,"x_max":770,"o":"m 91 517 l 91 671 l 383 671 q 331 730 366 707 q 253 756 297 752 l 91 756 l 91 909 l 770 909 l 770 756 l 581 756 q 627 671 612 716 l 770 671 l 770 517 l 633 517 q 417 286 602 367 l 658 12 l 659 0 l 404 0 l 117 336 l 119 397 q 286 434 220 402 q 379 517 352 466 l 91 517 z "},"−":{"ha":732,"x_min":46,"x_max":685,"o":"m 685 371 l 46 371 l 46 541 l 685 541 l 685 371 z "},"◌":{"ha":985,"x_min":130,"x_max":854,"o":"m 429 66 q 494 122 429 122 q 560 66 560 122 q 494 8 560 8 q 429 66 429 8 m 218 178 q 283 235 218 235 q 349 178 349 235 q 283 121 349 121 q 218 178 218 121 m 642 178 q 707 235 642 235 q 772 178 772 235 q 707 121 772 121 q 642 178 642 121 m 724 380 q 789 437 724 437 q 854 380 854 437 q 789 324 854 324 q 724 380 724 324 m 195 437 q 243 423 225 437 q 260 380 260 408 q 243 338 260 352 q 195 324 225 324 q 130 380 130 324 q 195 437 130 437 m 235 625 q 243 633 235 625 q 283 640 251 640 q 332 625 315 640 q 349 583 349 610 q 283 525 349 525 q 218 583 218 525 q 235 625 218 610 m 707 640 q 756 625 739 640 q 772 583 772 610 q 707 525 772 525 q 642 583 642 525 q 707 640 642 640 m 494 751 q 543 736 527 751 q 560 692 560 720 q 494 638 560 638 q 429 695 429 638 q 494 751 429 751 z "}}}
